<svg xmlns="http://www.w3.org/2000/svg" data-name="Layer 1" viewBox="0 0 247.68 116.16"><path fill="#ed1c24" fill-rule="evenodd" d="M101.13 69.22l-.57.93h6s1.12 0 2-1.68l2-3.27h1.47l.74-1.29H95.44l-.9 1.34h1.54l-2.71 4.81S92.42 72 94.94 72h6.64s.67-.11.34.75l-.22.48h5.57l.6-1.34s.69-.9-1.31-.9H99.7s-.86-.06-.42-.92l2.78-4.84h2.45l-2.17 3.55s-.16.5-1.21.47M124.16 68.23a3 3 0 0 0 1.5-1.09l1-2c.5-1.16-1.47-1.31-1.47-1.31h-8.55a3.58 3.58 0 0 0-2.57.86L113 66.3h5.57l.55-.75a.61.61 0 0 1 .55-.3h1s.55 0 .07.69l-.52.81a1.49 1.49 0 0 1-1.24.6l-2.28 0L116 68.54h1.42c1.91-.09 1.15.9 1.15.9l-.52.9c-.34.77-1.46.62-1.46.62-1.17 0-.74-.52-.74-.52l.43-.68h-5.55L110.06 71c-.55 1.12.74 1.12.74 1.12h10.33a2.36 2.36 0 0 0 1.93-.77l1.1-1.7c.59-.92 0-1.4 0-1.4M137.15 63.94h-8.28l-.72 1.22h1.17l-1.26 2a1 1 0 0 1-.6.17H126l-.69 1.17h1.05c.71 0 .76.1.67.32L125 72.32h5.6l4.26-7.16h1.48l.85-1.22M148.61 63.94h-8.29l-.71 1.22h1.16l-1.28 1.74a1.93 1.93 0 0 1-1.38.47h-1.86l-.69 1.17h.6c.73 0 .59.21.38.55l-.82 1.31c-.23.37-.54 1.68.86 1.75h6.53l.57-1.1c-.6 0-1.55 0-2.1 0-.71 0-.35-.54-.35-.54l1.33-1.91a2.24 2.24 0 0 0 2-1l1.71-2.45h1.48l.86-1.22"/><polyline fill="#ed1c24" fill-rule="evenodd" points="167.58 61.91 162.51 61.91 161.63 63.16 166.7 63.16 167.58 61.91"/><path fill="#ed1c24" fill-rule="evenodd" d="M195.84 63.91l-.74 1.27h2.65c.66 0 .85.32.59.71l-.19.35a1.39 1.39 0 0 1-1.07.34l-4.86 0a1.24 1.24 0 0 0-1.21.7l-.67 1.24s-.9 1.7 2.1 1.83H202s.95 0 .91.45L202 72.32h5.43l4.09-6.71a1.22 1.22 0 0 1 .94-.43H214s.69 0 .06.95l-3.64 6.19h5.43l4.07-6.73a1.11 1.11 0 0 1 .93-.41h.79l.83-1.27H195.84M205.7 66l-1.57 2.7c-.19.24-.5.41-1.57.41H197s-1-.21-.59-1c0 0 .07-.43.81-.43H202a1.7 1.7 0 0 0 1.38-.91l1-1.59h1.22S206.22 65.2 205.7 66zM166.48 65.27l.89-1.38H153.8l-.88 1.42h6.47s.81-.06.55.3l-.24.35h-6.38a1.63 1.63 0 0 0-1.14.51l-1.09 1.72c-.25.45-.08 1 1.73 1h3.57s1.21-.09.81.69l-.52.86a1 1 0 0 1-.76.47h-1s-.6.09-.28-.52l.4-.75H150l-.88 1.44s-.69.65.14.89l-.29.46s-.35.69.27.73h3.17a1.33 1.33 0 0 0 .88-.73l.24-.4h6.76a1.88 1.88 0 0 0 1.8-1.16l1-1.64s.93-1.46-1.93-1.63h-3.73s-.91.15-.48-.47a1.2 1.2 0 0 1 1-.37h5.66v0a1.35 1.35 0 0 0 1.08-.48l.81-1.28h1M192.13 63.89l-1.81 0 .73-1.11s.1-.89-2.06-.86h-15.5a4.39 4.39 0 0 0-3.38 2h-1.36l-.81 1.36h1.4l-4.47 7.07h5.43l4.33-7h8.74s.83-.06.57.3l-.26.35H177.3a2.57 2.57 0 0 0-1.81 1.29l-.34.53s-.66 1.31 1.67 1.4h3.57s1.21-.09.79.69l-.53.86a.9.9 0 0 1-.76.47h-.59s-.6.09-.31-.52l.42-.75h-5.28l-.91 1.44s-.28.9 1.17.95h9.88a1.89 1.89 0 0 0 1.81-1.16l1-1.64s.95-1.46-1.93-1.63h-3.71s-.91.15-.51-.47a1.26 1.26 0 0 1 1-.37h5.64v0a1.29 1.29 0 0 0 1.1-.52l.78-1.24h1.74l.93-1.38m-7-.56l-.38.58-9.38 0a2.16 2.16 0 0 1 1.64-.79H184C185.2 63.08 185.15 63.33 185.15 63.33zM202.9 77.63l-7.89 8h6.32l1.22-1.18h3.32l-.49 1.21h6.72l2.66-8.05H202.9m3.81 4.81h-2.05l3.47-3.33z"/><polyline fill="#ed1c24" fill-rule="evenodd" points="191.18 77.63 185.98 85.65 193.39 85.65 198.51 77.63 191.18 77.63"/><polyline fill="#ed1c24" fill-rule="evenodd" points="142.65 77.63 137.46 85.65 144.88 85.65 149.94 77.63 142.65 77.63"/><polyline fill="#ed1c24" fill-rule="evenodd" points="162.76 77.63 160.85 80.71 158.95 77.63 152.27 77.63 147.35 85.65 153.46 85.65 155.63 82.38 157.76 85.65 163.94 85.65 169.13 77.63 162.76 77.63"/><path fill="#ed1c24" fill-rule="evenodd" d="M185.34 77.63H171.72l-5.14 8h14.93A3.79 3.79 0 0 0 185 83.44l2.4-4s1.61-1.8-2.09-1.8m-6.21 3.27l-.73 1.46c-.69 1.61-1.81 1.52-1.81 1.52H175.5L177.61 80l1.21 0C179.51 80.23 179.13 80.9 179.13 80.9zM92.78 77.63l-7.78 8h6.33l1.18-1.18h3.31l-.48 1.18h6.71l2.71-8h-12m3.9 4.81H94.61l3.47-3.33z"/><polyline fill="#ed1c24" fill-rule="evenodd" points="108.49 77.65 103.38 85.65 110.8 85.65 115.88 77.65 108.49 77.65"/><path fill="#ed1c24" fill-rule="evenodd" d="M132.4 77.65H118.35l-5.11 8h7.37l1.69-2.81 2.09 2.81h7.37l-2.24-2.26a2.62 2.62 0 0 0 2.31-1.14l1.62-2.64a1.27 1.27 0 0 0-1-2m-6.56 3.13l-.4.57s-.38.57-2.38.34L124 80h1.5S126.22 80.19 125.84 80.78zM15.75 68a107.37 107.37 0 0 0 27.89-2.48 103.07 103.07 0 0 0 15-8.69c12.12-8 24-16.25 35.84-24.53L105 32.22 84.72 63.72c-3.13 4.1-2.77 6.3 2.7 8.08a85.24 85.24 0 0 0-21 1c-5.92 1.28-9.63 2.9-9.77 5-.35 2.73 6.1 5.82 12.38 6.5a57.74 57.74 0 0 0 8 .28c-7 1.42-13.84 1.81-20.23-1.08-3.62-1.74-7.07-4.47-10.56-7-9.41-5.75-16.47-6.76-30.51-8.6"/><path fill="#ed953e" fill-rule="evenodd" d="M49.06,62.83l-9.39,7.1,7.57-4.72c2.08-1.35,4.27-2.59,6.5-3.78A46.07,46.07,0,0,0,62.29,55l-.45-.34q-6.11,4.25-12.78,8.14"/><path fill="#ed953e" d="M49.06,62.83l0,0-9.39,7.1.07.11,7.57-4.72c2.07-1.36,4.26-2.59,6.49-3.79a45.43,45.43,0,0,0,8.56-6.41l.05,0-.5-.38,0,0,0,0c-4.07,2.82-8.32,5.55-12.78,8.14l0,0,0,.05c4.47-2.59,8.72-5.31,12.79-8.14l0-.05,0,.05.44.34,0,0,0-.05a45.4,45.4,0,0,1-8.54,6.39c-2.23,1.2-4.42,2.44-6.5,3.79l-6.41,4,8.3-6.28,0-.05"/><path fill="#ed953e" fill-rule="evenodd" d="M62.76,55.45a37.92,37.92,0,0,0-7.3,7.1C52.23,67,49,71.2,45.75,75.3c3.65-4.18,7.8-8.31,12.14-12.42a52.71,52.71,0,0,0,5.3-7.1l-.43-.33"/><path fill="#ed953e" d="M62.76,55.45l0-.05a37.39,37.39,0,0,0-7.3,7.11c-3.24,4.5-6.48,8.65-9.72,12.76l.1.07c3.65-4.18,7.79-8.31,12.14-12.42a52.71,52.71,0,0,0,5.3-7.1l0,0-.48-.37,0,0,0,0,0,.05,0,0,.43.33,0,0-.06,0a53.06,53.06,0,0,1-5.28,7.09c-4.35,4.1-8.49,8.24-12.15,12.42l0,0,0,0c3.24-4.1,6.48-8.26,9.71-12.75a37.46,37.46,0,0,1,7.28-7.09l0,0,0,0,0,0"/><path fill="#ed953e" fill-rule="evenodd" d="M63.78,56a32.41,32.41,0,0,0-5.06,9c-1.79,4.67-3.6,9.34-5.54,14q3.23-6.39,6.68-12.33a39.23,39.23,0,0,0,4.5-10.5l-.58-.2"/><path fill="#ed953e" d="M63.78,56l-.05,0a32.41,32.41,0,0,0-5.07,9c-1.78,4.67-3.6,9.34-5.54,14l.11,0q3.23-6.41,6.68-12.33a39.46,39.46,0,0,0,4.51-10.51v-.06L63.8,56l0,0,0,0,.05,0,0,.06.58.2,0-.06H64.3a39.24,39.24,0,0,1-4.5,10.48Q56.35,72.6,53.12,79l.06,0,0,0c2-4.67,3.76-9.34,5.55-14a32.37,32.37,0,0,1,5-9l0,0,0,.06,0-.06"/><path fill="#ed953e" fill-rule="evenodd" d="M65,56.43a32.06,32.06,0,0,0-2.48,11.72c-.08,1.95-.21,3.89-.37,5.84l.7-.27c.51-2.59,1.12-5.17,1.87-7.76a48.58,48.58,0,0,0,.88-9.44l-.6-.09"/><path fill="#ed953e" d="M65,56.43l-.06,0a32,32,0,0,0-2.48,11.75c-.08,1.95-.21,3.89-.37,5.83v.1l.79-.31h0v0c.51-2.59,1.12-5.17,1.87-7.75a49.74,49.74,0,0,0,.89-9.46v-.05l-.66-.1H65l0,0,.06,0v.06l.6.09v-.06h-.06A48.48,48.48,0,0,1,64.66,66c-.75,2.58-1.36,5.17-1.87,7.75l.06,0,0-.06-.7.27,0,.06h.06c.16-1.94.29-3.89.37-5.83a32.16,32.16,0,0,1,2.47-11.71l0,0v0"/><path fill="#ed953e" fill-rule="evenodd" d="M66.21,56.52C66,60.69,66,64.78,67.57,69l.79,3.55.8-.09L68.92,69a40.59,40.59,0,0,0-2-12.52l-.66.09"/><path fill="#ed953e" d="M66.21,56.52h-.06C66.08,57.69,66,58.86,66,60A24.4,24.4,0,0,0,67.51,69l.06,0h-.06l.8,3.61.85-.1h.06L69,69c0-.17,0-.35,0-.52a41.26,41.26,0,0,0-2.07-12v0l-.71.09h0v0h.06v.06l.65-.09v-.06h-.06a41.5,41.5,0,0,1,2.06,12c0,.17,0,.35,0,.52l.23,3.41-.68.08-.78-3.5h0A24.19,24.19,0,0,1,66.15,60c0-1.17,0-2.34.12-3.51h-.06v0"/><path fill="#ed953e" fill-rule="evenodd" d="M67.49,56.25a31,31,0,0,0,5,11.9l2,3.61h.84l-1.49-3.88a40.81,40.81,0,0,0-5.71-11.82l-.59.19"/><path fill="#ed953e" d="M67.49,56.25l-.06,0a31.2,31.2,0,0,0,5,11.92l0,0,0,0,2,3.64h1l-1.53-4A40.49,40.49,0,0,0,68.13,56l0,0-.64.2-.06,0,0,.06.06,0v.06l.6-.19,0-.06,0,0a40.93,40.93,0,0,1,5.7,11.8l1.46,3.79h-.72l-1.94-3.57h0a30.92,30.92,0,0,1-5-11.88h-.06v0"/><path fill="#ed953e" fill-rule="evenodd" d="M68.6,55.73a34,34,0,0,0,8.5,10.51l2.57,2.66,2.66,2.67.61.05a82.49,82.49,0,0,1-5.7-7.34,42.75,42.75,0,0,0-8.18-8.88l-.46.33"/><path fill="#ed953e" d="M68.6,55.73l-.06,0a34.24,34.24,0,0,0,8.52,10.53l2.57,2.65,2.68,2.69.62.05.06-.1a80.67,80.67,0,0,1-5.7-7.34,43.1,43.1,0,0,0-8.19-8.89l0,0-.51.36,0,0,0,0,.06,0,0,.05.47-.33,0-.05,0,.05a42.85,42.85,0,0,1,8.17,8.86,82.61,82.61,0,0,0,5.7,7.35l0,0v-.06l-.59,0-2.65-2.65L77.14,66.2a34,34,0,0,1-8.49-10.5l-.05,0,0,.05,0-.05"/><path fill="#ed953e" fill-rule="evenodd" d="M69.53,55a33.29,33.29,0,0,0,9.58,7.19L83.84,65l.41-.61c-2-1.48-3.82-3-5.61-4.55a54.09,54.09,0,0,0-8.77-5.2l-.34.44"/><path fill="#ed953e" d="M69.53,55l0,0a33.44,33.44,0,0,0,9.59,7.21L83.85,65l.45-.65,0,0,0,0c-2-1.48-3.82-3-5.61-4.54a53,53,0,0,0-8.79-5.22l0,0-.37.48,0,0,0,0,0,0,0,0,.34-.44,0,0,0,0a53.58,53.58,0,0,1,8.76,5.2c1.79,1.56,3.6,3.07,5.62,4.55l0,0,0,0-.38.56-4.68-2.7A33.24,33.24,0,0,1,69.57,55l0,.05,0,0,0,0"/><path fill="#ed953e" fill-rule="evenodd" d="M70.23,54.09a38.67,38.67,0,0,0,11.26,4.82l5.33,1.44.44-.59a56.38,56.38,0,0,1-5.81-2.63,58.12,58.12,0,0,0-11-3.55l-.23.51"/><path fill="#ed953e" d="M70.23,54.09l0,.06A38.5,38.5,0,0,0,81.48,59l5.36,1.46.47-.62,0-.06-.08,0a61,61,0,0,1-5.81-2.63,57.68,57.68,0,0,0-11-3.56h0l-.26.56,0,0,0,0,0-.06.06,0,.23-.51-.06,0v.06a57.93,57.93,0,0,1,11,3.55,57.75,57.75,0,0,0,5.82,2.63l0-.06-.05,0-.42.55-5.28-1.43A38.59,38.59,0,0,1,70.26,54l0,.05.06,0-.06,0"/><path fill="#ed953e" fill-rule="evenodd" d="M70.61,53a41.17,41.17,0,0,0,12.8,2.1l6.59.33.37-.52c-2.84-.43-5.62-1-8.37-1.56a63.58,63.58,0,0,0-11.35-.91l0,.56"/><path fill="#ed953e" d="M70.61,53l0,.06a41,41,0,0,0,12.82,2.1l6.62.33.39-.54.06-.08-.1,0c-2.84-.43-5.62-1-8.37-1.56a62.86,62.86,0,0,0-11.36-.91h-.06l0,.62v0l0,0,0-.06h.06l0-.57h-.06v.06A64.21,64.21,0,0,1,82,53.43c2.76.59,5.54,1.13,8.38,1.56v-.06l-.05,0-.36.48-6.55-.32A41,41,0,0,1,70.63,53l0,.06h0"/><path fill="#ed953e" fill-rule="evenodd" d="M70.65,51.94A47.8,47.8,0,0,0,83.9,51L94,49.23l.32-.32q-5.81.48-11.63.75a51.82,51.82,0,0,0-12,1.72l0,.56"/><path fill="#ed953e" d="M70.65,51.94V52c1,.06,2.1.1,3.15.1A47.61,47.61,0,0,0,83.91,51L94,49.29l.34-.34,0-.1q-5.82.48-11.63.74a52.54,52.54,0,0,0-12,1.73h0l0,.62v0h.06v-.07h.06l0-.56h-.06v.06a51.81,51.81,0,0,1,12-1.72q5.82-.27,11.64-.75v-.06l0,0-.31.32-10,1.73A47.48,47.48,0,0,1,73.8,52c-1,0-2.1,0-3.14-.1v.06h0"/><path fill="#ed953e" fill-rule="evenodd" d="M70.42,50.87a44.5,44.5,0,0,0,14.16-4.74l11.91-5c-4.66,1.59-9.32,3.13-14,4.48a45.74,45.74,0,0,0-12.28,4.73l.18.51"/><path fill="#ed953e" d="M70.42,50.87v.06a44.86,44.86,0,0,0,14.18-4.74l11.9-5,0-.11c-4.66,1.59-9.31,3.13-14,4.49A45.9,45.9,0,0,0,70.21,50.3l0,0,.19.56,0,0h.05v-.06l0,0-.17-.51-.06,0,0,0a46,46,0,0,1,12.26-4.72c4.66-1.35,9.32-2.9,14-4.48l0-.06,0-.06-11.91,5a44.39,44.39,0,0,1-14.14,4.74v.06l0,0,0,0"/><path fill="#ed953e" fill-rule="evenodd" d="M69.53,49.7l.38.14a41.54,41.54,0,0,0,10.32-6.22c3.77-3,7.83-6,11.92-9l-8.09,5L69.53,49.7"/><path fill="#ed953e" d="M69.53,49.7l0,.06.37.14h.05a42,42,0,0,0,10.34-6.23c3.77-3,7.83-6,11.91-9l-.07-.11-8.09,5L69.4,49.72l.11,0,0-.06,0,0,14.53-10.1,8.09-5,0,0,0,0c-4.09,3-8.14,6-11.92,9a41.71,41.71,0,0,1-10.31,6.2l0,.06,0-.06-.38-.14,0,.06,0,0,0,0"/></svg>