<svg xmlns="http://www.w3.org/2000/svg" data-name="Layer 1" viewBox="0 0 2482 2500"><path fill="red" d="M1374.67,5.58c-4.78,1.37-16.07,2.74-25,3.08-35.56.68-150.43,29.74-192.14,48.2-3.76,1.71-14.36,6.16-23.93,9.92-25,9.57-90.94,41-101.19,48.54-4.79,3.08-12.65,7.18-17.78,8.21-5.13,1.37-9.23,3.76-9.23,5.13s-2.74,3.41-5.81,4.78c-3.42,1-10.6,5.13-16.41,8.89a147,147,0,0,1-18.12,10.26c-4.45,1.71-13,7.18-19.15,12s-12.3,8.55-13.33,8.55c-7.86,0-118,80-149.06,108C758.27,304,711.44,354,711.44,358.05c0,1-3.08,5.81-7.18,10.26-10.26,11.62-41,60.17-49.91,78.29-3.77,8.54-11.29,23.59-16.07,33.84-16.75,34.19-23.59,71.45-21.88,114.87,2.05,42.74,11.62,65,40.68,94.36,30.43,30.43,62.9,43.76,114.19,46.49,35.21,1.71,60.51-1,95.72-10.94,11.28-3.07,26.32-6.83,33.5-8.88,7.18-1.71,15.39-4.45,18.81-6.5,7.86-4.1,52-23.93,54-23.93,6.16,0,78.29-44.1,145-88.55,44.1-29.4,82.73-55,86.15-56.75,3.08-2.05,23.93-14.36,46.15-27.69,22.22-13,49.57-28.72,60.86-34.53s27.35-14.36,35.89-18.8c8.55-4.1,24.62-11.62,35.9-15.73,11.28-4.44,25.3-10.25,30.77-12.65,5.81-2.39,14-6.15,18.8-8.2,13.33-5.47,43.42-10.94,72.82-13,63.59-4.11,108,23.93,130.94,82.73,5.47,14,6.49,25.64,6.49,66.67,0,49.91-4.44,77.26-17.77,109.4-2.74,6.49-6.5,15.72-8.55,20.51-17.1,41-52.31,99.82-92.65,153.16-38.29,51.28-120.68,136.4-175,181.19-18.8,15.73-39.66,32.82-46.15,38.29-14.36,12-31.11,23.93-49.57,36.24-7.52,4.78-19.83,13-27.35,18.46-21.2,14.36-77.61,44.44-109.4,58.12-9.23,4.1-21.88,9.57-28,12.31-5.81,2.73-13.67,4.78-17.43,4.78-3.42,0-11.28,1.71-17.44,3.76-22.22,7.87-44.78-7.18-44.78-30.08,0-28,13.33-45.81,97.43-129.23,90.94-90.26,100.85-103.59,100.85-137.78,0-35.21-16.75-59.14-54.35-78.28-16.41-8.55-22.57-9.58-51.28-9.58-33.51,0-53,4.79-77.27,19.49-5.47,3.42-14,7.86-18.8,10.26s-9.23,5.12-10.26,6.15-7.86,6.15-15.38,12c-18.12,13.67-49.92,46.15-68,69.74-12.65,16.41-21.88,31.79-43.42,72.13-17.78,33.51-33.85,95.73-33.85,132,0,73.5,38.29,132.3,97.44,149,17.77,5.13,90.25,5.13,115.21.34,24.61-5.12,88.88-25,93-28.71a14.25,14.25,0,0,1,8.2-3.08c8.89,0,110.43-51.62,145.3-74.19,7.86-5.12,16.75-10.94,20.17-13,3.08-1.71,19.14-11.62,35.9-21.88,16.41-10.25,30.76-19.83,31.79-20.85,1-1.37,12.65-9.92,25.64-18.8,13.33-9.24,28.72-19.83,34.19-23.59,5.81-4.11,21.88-16.41,35.89-27.7,88.89-70.76,167.52-146.32,213.33-205.12,7.52-9.23,14.36-17.78,15.39-18.8,2.73-2.05,26-35.56,42-60.86a443.55,443.55,0,0,0,24.27-41.7c6.5-12.31,15.38-29.06,19.83-37.61s14-30.77,21.54-49.57c7.18-18.81,14.36-37.27,15.72-41,9.58-24.27,24.28-86.83,30.77-131.62,7.18-50.6,1.71-133.67-12.31-179.48-5.81-18.8-7.17-22.22-19.82-49.57-27.35-58.81-71.11-112.14-121.37-147-6.84-4.78-15.38-11.28-19.14-15-12.31-10.94-74.87-39-111.45-49.57a561.8,561.8,0,0,0-64.62-14.36C1474.5,3.87,1386,1.48,1374.67,5.58Zm991.09,1690.56c-1,.69-16.75,3.77-35.55,6.84-18.8,2.74-49.57,7.87-68.38,11.28l-34.18,5.82V2034.6c0,341.53-.69,327.17,19.48,369.91,6.84,14.7,16.41,27.35,31.11,40.68,36.24,33.16,70.09,43.42,142.22,43.76,61.54,0,59.15,2.39,57.78-54.36l-1-41-26.32-2.4c-46.84-4.1-69.4-22.9-74.53-61.88-1.37-11.62-2.39-157.94-2.05-324.78.34-288.88-.34-316.57-8.55-308.37ZM1419.12,1703c-75.9,11.28-101.2,16.07-104.28,19.83-2.39,2.74-2.73,111.79-1.7,320.34,1.7,291.27,2.39,317.6,7.86,331.61,13,33.16,19.83,44.79,37.26,62.22,35.9,35.9,81.71,50.6,156.92,50.6,41.71,0,47.52-.68,50.26-6.15,3.42-6.5,5.13-66,2.39-79.66-2-8.55-3.42-8.89-29.06-10.94-32.48-2-51.62-13-65-36.58l-8.55-15.38-1-177.09c-.68-132,0-178.46,3.08-182.22s14.7-4.79,51.28-4.79c56.41,0,51.62,5.47,50.26-59.83l-1-44.44-47.86-1.71c-26.33-1-49.91-3.08-52-4.44-3.41-2-4.44-22.91-4.44-84.79v-81.71l-7.52.35c-4.45.34-20.86,2.39-36.92,4.78ZM234.53,1857.17c-25.65,2.39-87.18,17.09-106,25.3a133.39,133.39,0,0,1-15.38,5.47c-15,4.1-65,29-65,32.47,0,1.71,3.08,9.58,6.5,17.78,22.56,49.57,31.11,67.35,32.82,67.35,1,0,4.44-1.37,7.86-3.08a370,370,0,0,1,55.39-22.56c10.25-3.08,22.56-7.18,27.35-8.89,19.14-6.84,70.08-10.26,93.67-6.49,46.49,7.52,63.59,29,66.32,84.1,1.37,30.42,1.37,31.11-6.49,33.16-4.45,1.37-35.9,2.39-69.75,2.39-81.36,0-106.32,4.79-159,30.43-45.12,21.88-78.63,63.24-94.7,116.58-8.2,28.37-7.17,81.36,2.06,109.4,30.76,93,103.93,147.34,205.8,152.81,92.65,5.13,188-22.56,249.23-71.79l22.22-18.12,1-180.85c1-209.57.68-216.75-24.62-268-11.28-23.25-49.23-60.17-72.82-70.42-10.94-5.13-22.9-10.26-26.66-12C338.8,1860.93,273.84,1853.41,234.53,1857.17Zm100.85,329.56c2.05,2.74,3.42,43.42,3.42,92.65,0,97.09,1.36,90.94-23.93,104.27-9.58,5.13-20.18,6.16-53.34,6.5H220.17l-17.1-11.63c-9.23-6.15-20.17-16.41-23.93-22.22-25.3-36.92-23.59-102.9,3.08-135.38,7.86-9.91,37.95-30.77,43.42-30.77a15.69,15.69,0,0,0,9.23-3.08c4.78-5.12,20.51-6.49,60.51-5.81,28.72.34,37.6,1.37,40,5.47Zm752.12-321.36c-68,16.07-122.39,45.13-177.09,95l-14.36,13v504.95c0,5.47,5.13,5.81,74.53,5.13l74.18-1,1-238.28.68-238,13-10.25c15.38-12.31,22.9-16.07,42.73-22.91,23.59-7.86,60.51-11.62,88.2-8.54,13.68,1.36,26.67,2,28.72,1,2.39-.68,8.55-12.31,14-26,5.12-13.68,13.33-31.45,17.43-39.66,11.28-21.54,10.26-27-4.78-30.43-7.18-1.7-20.17-4.78-29.4-6.83-24.28-6.16-98.46-4.45-128.89,2.73Zm743.57.69c-11.28,1.71-21.88,4.78-23.59,6.49a14.25,14.25,0,0,1-8.2,3.08c-2.74,0-15,4.78-27,10.94-26.32,13-66.66,50.25-83.76,78-15,24.27-32.48,60.51-35.21,73.5-1.37,5.47-3.42,13.33-5.13,17.09-1.37,3.76-5.47,18.46-8.89,32.48-9.23,36.92-9.23,155.21-.34,189.74,8.21,31.79,26.67,80.34,30.09,80.34,1.7,0,3.07,1.71,3.07,3.76,0,13,40.68,64.61,69.4,87.86,12.65,10.26,41,25,62.22,32.14,22.91,7.86,73.51,16.41,96.07,16.41,48.55,0,136.06-20.86,165.12-39.32,6.84-4.1,16.07-8.89,20.86-10.25,10.25-3.08,32.82-17.1,35.55-21.88,3.08-4.79-35.21-82.4-40.34-82.4-2.39,0-8.54,3.08-13.33,6.84s-10.6,6.84-13.33,6.84c-2.4,0-7.53,2-11.29,4.79-3.76,2.39-21.53,9.57-39.31,15.72-30.43,10.6-35.56,11.28-80.34,11.63-42.39,0-49.57-.69-63.25-7.18-47.86-22.91-75.21-80.69-75.21-158.63,0-16.75.34-30.77,1-31.11.34-.69,76.23-1.71,168.2-2.74l167.52-1.71-1-34.18c-2-67-19.83-157.27-35.21-177.78-1.37-2-6.16-10.6-10.6-19.14-18.46-36.58-57.44-68-103.59-83.42-33.84-11.62-95.72-15-140.17-7.86Zm73.51,108.71c14.35,3.76,44.44,28,44.44,35.56,0,2.05,2.39,8.2,5.13,13.33,7.86,15.38,14,66,8.54,72.48-3.41,4.44-16.75,5.12-85.81,5.12h-81.7l-2-8.54c-4.45-17.44,7.52-64.27,21.19-82.39,15-20.17,28.38-30.43,48.21-36.24,10.94-3.08,21.53-5.13,23.93-4.45,2,.69,10.25,3.08,18.12,5.13ZM653.32,1625.38c-26,13.33-33.85,19.83-45.13,36.58-10.94,16.75-11.28,18.12-11.28,53v36.24l13,17.77c15.39,20.86,25.64,28.38,48.21,36.24,30.42,9.92,56.75,6.16,87.17-13,36.58-23.25,49.23-82.73,27-126.49-7.86-15.39-14.7-22.57-35.21-35.56C718.62,1618.2,671.78,1615.46,653.32,1625.38Zm83.76,246.83c-5.47,1.71-20.86,4.79-34.19,6.5-13,1.7-36.92,5.12-53,7.52-16.07,2-30.08,5.12-31.79,6.15-3.08,2.74-3.42,583.58-.69,588.71,1.37,1.71,31.8,3.07,71.8,3.07,69.74,0,70.08,0,71.79-7.86,1-4.1,1.37-142.22,1-306.66-1-296.4-1-299.14-7.87-299.82-3.76-.35-11.28.68-17.09,2.39Z"/></svg>