<svg xmlns="http://www.w3.org/2000/svg" data-name="Layer 1" viewBox="0 0 300 300"><rect width="231.46" height="32.01" x="34.27" y="180.94" fill="#08a650"/><path fill="#fff" d="M237.36 188.46c0 .26.3.64.77 1.33s1 .9 1.24.9.73-.39 1.33-1.07c.47-.52.81-.9.81-1.16 0-.43-.34-.85-.86-1.46s-.81-.94-1.19-.94-.73.34-1.21.94-.89 1.2-.89 1.46M236.88 194.84c-.47-.13-.82 0-.82-.52s.86-.47 2.56-1.06c1.18-.4 1.79-.86 2.14-.86.16 0 .37.2.37.55S241 194.32 241 196v5c0 1.07.18 1.53.73 2s1.33.22 1.33.81c0 .39-.17.59-.6.59s-1.58-.25-3.08-.25-2.31.25-2.83.25a.58.58 0 0 1-.48-.59c0-.47.39-.38.86-.59a1.41 1.41 0 0 0 .6-1.33V196c0-.72-.12-1.07-.6-1.19M206.84 194.84c-.55-.05-.84-.05-.84-.52s.63-.47 1.58-.63c1.83-.69 2.69-1.29 3-1.29s.4.13.4.46c0 .14-.08.22-.08.4v1.33h.21a5.26 5.26 0 0 1 3.68-1.94 3.36 3.36 0 0 1 3.3 2.06 6.85 6.85 0 0 1 .58 3.42V201c0 1 0 1.53.61 2s1.12.29 1.12.81-.16.59-.6.59h-.14a20.1 20.1 0 0 0-2.22-.25 19.39 19.39 0 0 0-2.9.25.54.54 0 0 1-.47-.51c0-.42.42-.42.72-.67a1.75 1.75 0 0 0 .56-1.47v-3.07c0-2.66-.47-4-2.3-4-1.46 0-2.15.85-2.15 2.53V201c0 1.07.08 1.53.69 2s1.31.22 1.31.81a.52.52 0 0 1-.59.59c-.69 0-1.59-.25-2.66-.25a20 20 0 0 0-2.92.25.45.45 0 0 1-.46-.51c0-.42.43-.46.69-.67a1.47 1.47 0 0 0 .45-1.33v-5.79a1.26 1.26 0 0 0-.59-1.27M198.12 190.34c0-1.29-.13-2.14-.81-2.61a2.24 2.24 0 0 0-1.46-.55.62.62 0 0 1-.4-.55.54.54 0 0 1 .57-.49c.26 0 1.37.18 3.72.18a33 33 0 0 0 3.52-.26c.47 0 .68.26.68.57 0 .63-.86.41-1.33 1-.56.42-.56 1-.56 2.18v10.78c0 1.07 0 1.66.85 2.31.74.47 1.77.21 1.77 1 0 .31-.21.7-.56.7a28.35 28.35 0 0 0-3.77-.39 38.21 38.21 0 0 0-3.81.39c-.21 0-.51-.39-.51-.65 0-.65 1.1-.65 1.63-1.38.47-.55.47-1.44.47-2.73zM181 194.53h-.78a.35.35 0 0 1-.38-.3c0-.9.13-1.23.62-1.23h.83c.43 0 .43-.05.43-.52.18-.68.18-1.54.47-2.53a8.36 8.36 0 0 1 2.39-3.08 5.61 5.61 0 0 1 3.64-1.7c.87 0 1.63.5 1.63 1.23a6.36 6.36 0 0 1-.88 2.23c-.32.42-.49.55-.75.55-.46 0-.46-.42-.59-.84-.35-.87-.74-1.3-1.31-1.3-.84 0-1.22 1.16-1.22 3.3v2.31c0 .35 0 .35.38.35h1.29c.61 0 1-.52 1.24-.52.05 0 .21.12.21.38a5.22 5.22 0 0 1-.42 1.12c-.17.38-.26.55-.86.55h-1.37c-.47 0-.47.13-.47.64V201c0 1.12 0 1.53.81 2 .64.34 1.37.22 1.37.81a.53.53 0 0 1-.59.59c-.61 0-1.64-.25-3.3-.25-1.33 0-2.23.25-2.79.25a.54.54 0 0 1-.47-.59c0-.47.33-.38.87-.59a1.37 1.37 0 0 0 .59-1.34v-6.72c0-.51 0-.64-.59-.64M138.27 194.84c0-.25 0-.31-.39-.31h-1c-.19 0-.19 0-.19-.34 0-.5 1-.73 2.52-2.13s1.93-2.44 2.22-2.44a.43.43 0 0 1 .43.33 13.72 13.72 0 0 0-.18 1.6v1c0 .47 0 .47.49.47h1.3c.61 0 1-.52 1.26-.52s.22.12.22.31a4.36 4.36 0 0 1-.36 1.15c-.16.42-.25.59-.85.59h-1.5c-.47 0-.56.13-.56.64v5.74c0 1.25.31 1.72 1.34 1.72s1.52-.52 1.93-.52a.31.31 0 0 1 .34.34c0 .78-1.84 2.21-4.15 2.21-2 0-2.88-1.22-2.88-3.75v-6.07zM126.94 200.69c0-.29.12-.42.51-.42s.25.51.72 1.33a3 3 0 0 0 2.78 2c1.08 0 1.84-.6 1.84-1.46s-.51-1.23-1.71-1.71c-2.56-1-4.24-1.47-4.24-4 0-2.31 1.68-3.77 4.58-3.77a5.71 5.71 0 0 1 2.58.68c.16 0 .16.36.25.78v1.54c0 .38-.09.46-.25.46-.6 0-.38-.42-.87-1.15a2.89 2.89 0 0 0-2.52-1.27c-.9 0-1.5.42-1.5 1.1s.6 1.16 1.59 1.58c2.83 1 4.32 1.51 4.32 4s-1.75 4.26-4.79 4.26a10.66 10.66 0 0 1-2.44-.45h-.48c-.12 0-.2-.05-.2-.39V203c0-1.21-.17-1.93-.17-2.28M105.11 188.72c0-.69-.38-.94-1.49-.94-2.2 0-3.14 0-3.86 1.2-.56 1-.26 2.08-1.12 2.08-.38 0-.46-.16-.46-.42s.21-1.28.43-3.38c0-.94 0-1.2.83-1.2.27 0 2.85.22 7.69.22s7.35-.22 7.79-.22c.63 0 .72.26.77.94.13 2 .35 2.95.35 3.08 0 .39-.09.56-.56.56-.74 0-.56-.72-1-1.46-.59-1.32-1.45-1.54-3.93-1.54-1.24 0-1.45.26-1.45 1.24v11c0 1.55 0 2.39 1.18 3a4.48 4.48 0 0 0 1.64.47c.26 0 .38.22.38.55s-.17.7-.42.7a39.19 39.19 0 0 0-4.84-.39 39.23 39.23 0 0 0-4.79.39c-.22 0-.42-.31-.42-.7s.2-.55.33-.55a5 5 0 0 0 2.09-.6c.86-.59.86-1.46.86-2.91zM63.92 187.64c-.5-.17-.84 0-.84-.46 0-.73.9-.55 2.43-1.17a22.43 22.43 0 0 1 2.19-.85c.25 0 .39.3.39.78s-.14 1.79-.14 4.11v4.54h.21a5.19 5.19 0 0 1 3.7-1.94 3.62 3.62 0 0 1 3.42 2.06 9.35 9.35 0 0 1 .5 3.64V201c0 1 0 1.53.58 2s1.1.29 1.1.81a.54.54 0 0 1-.61.59h-.13a21.1 21.1 0 0 0-2.22-.25 19.57 19.57 0 0 0-2.9.25.54.54 0 0 1-.48-.51c0-.42.39-.42.74-.67a1.65 1.65 0 0 0 .59-1.47v-3.07c0-2.66-.56-4-2.31-4-1.42 0-2.19.85-2.19 2.53V201c0 1.07.09 1.53.64 2s1.44.22 1.44.81c0 .39-.23.59-.72.59s-1.44-.25-2.73-.25a13.94 13.94 0 0 0-2.78.25.54.54 0 0 1-.46-.51c0-.42.37-.46.64-.67a1.3 1.3 0 0 0 .48-1.21V188.88c0-.68-.19-1.15-.54-1.24M51 188.72c0-.69-.38-.94-1.53-.94-2.15 0-3.08 0-3.81 1.2-.6 1-.27 2.08-1.11 2.08-.4 0-.46-.16-.46-.42s.2-1.28.36-3.38c.1-.94 0-1.2.86-1.2.31 0 2.88.22 7.65.22s7.41-.22 7.8-.22c.69 0 .74.26.81.94.13 2 .31 2.95.31 3.08 0 .39-.05.56-.52.56-.71 0-.6-.72-1-1.46-.6-1.32-1.45-1.54-4-1.54-1.24 0-1.47.26-1.47 1.24v11c0 1.55.08 2.39 1.21 3a4.47 4.47 0 0 0 1.66.47c.27 0 .39.22.39.55s-.23.7-.48.7a37.21 37.21 0 0 0-4.78-.39 40.33 40.33 0 0 0-4.84.39c-.21 0-.4-.31-.4-.7s.19-.55.34-.55a5 5 0 0 0 2.11-.6c.85-.59.85-1.46.85-2.91zM246.78 204.81a2.66 2.66 0 0 1-2.72-2.91c0-2.79 2-3.65 6.7-4.37v-1.24a2.17 2.17 0 0 0-2.12-2.44c-.54 0-.83.26-.83.86a5.69 5.69 0 0 0 .12.6c0 .85-1.07 1.45-2.62 1.45-.68 0-.84-.25-.84-.94 0-1.88 1.88-3 4.95-3 3.52 0 4.77 1.15 4.77 4.05v4.66c0 .95.11 1.25.81 1.25.17 0 .42-.12.63-.12s.26.12.26.34c0 .51-1.23 1.69-2.77 1.69a2.6 2.6 0 0 1-2.32-1.43 7.12 7.12 0 0 1-4 1.58m.81-3.21c0 .85.39 1.29 1.32 1.29 1.45 0 1.85-.66 1.85-1.64v-2.64c-2.12.11-3.17 1.23-3.17 3M226.19 204.67c-2.7 0-4.59-2.22-4.59-5.34a8.35 8.35 0 0 1 1.2-4.16 5.27 5.27 0 0 1 7.08-1.91v-4.38c0-.68-.26-1.15-.64-1.24s-.87 0-.87-.47c0-.63.91-.54 2.5-1.15 1.27-.42 1.83-.85 2.17-.85s.39.24.39.77-.18 1.53-.18 3.11V201.6c0 .63.18.9.77 1s.86.12.86.6-.39.52-1.33.67c-2 .31-3.08.77-3.42.77s-.25-.26-.25-.85V202.5c-1.12 1.45-2.18 2.17-3.69 2.17m3.55-8.3a2.73 2.73 0 0 0-2.56-2.86c-1.38 0-2.45 1.54-2.45 3.89 0 2.92 1.5 5 3.44 5a1.52 1.52 0 0 0 1.57-1.7zM165.62 198.93a6.83 6.83 0 0 1 1.93-4.61 6.91 6.91 0 0 1 4.88-1.79c3.55 0 6.09 2.43 6.09 5.72a6.53 6.53 0 0 1-6.83 6.5 5.82 5.82 0 0 1-6.07-5.82m6.94 4.64c1.51 0 2.55-1.2 2.55-3.51 0-3.9-1.65-6.37-3.48-6.37-1.63 0-2.57 1.15-2.57 3.58 0 3.86 1.67 6.3 3.5 6.3M149.27 198.61a4 4 0 0 0 3.93 4c2.06 0 3.17-1.34 3.58-1.34.19 0 .32.21.32.43s-.26.65-.86 1.11a7.86 7.86 0 0 1-5 1.77c-3.42 0-5.52-2.15-5.52-5.73a6 6 0 0 1 6-6.34c3 0 5.25 2.18 5.25 4.48 0 .87-.18 1-1.37 1h-5.81c-.52 0-.57.09-.57.61m3-1.63c1.2 0 1.37-.1 1.37-.69 0-1.63-1-2.83-2.24-2.83s-2.09 1.13-2.09 2.83c0 .59 0 .69.67.69z"/><path fill="#fff" d="M116.38 204.81a2.64 2.64 0 0 1-2.7-2.91c0-2.79 1.95-3.65 6.63-4.37v-1.24a2.15 2.15 0 0 0-2.09-2.44.78.78 0 0 0-.87.86c0 .25.06.46.06.6 0 .85-1 1.45-2.58 1.45-.66 0-.88-.25-.88-.94 0-1.88 1.93-3 5-3 3.52 0 4.77 1.15 4.77 4.05v4.66c0 .95.16 1.25.81 1.25.22 0 .48-.12.65-.12s.29.12.29.34c0 .51-1.27 1.69-2.86 1.69a2.37 2.37 0 0 1-2.22-1.43 7.28 7.28 0 0 1-4 1.58m.75-3.21c0 .85.34 1.29 1.33 1.29 1.45 0 1.85-.66 1.85-1.64v-2.64c-2.09.11-3.18 1.23-3.18 3M82.08 198.61a4 4 0 0 0 4 4c2 0 3.07-1.34 3.47-1.34a.45.45 0 0 1 .42.43c0 .26-.34.65-.86 1.11a8.06 8.06 0 0 1-5 1.77c-3.44 0-5.43-2.15-5.43-5.73s2.44-6.34 5.89-6.34c3.06 0 5.37 2.18 5.37 4.48 0 .87-.26 1-1.45 1H82.64c-.47 0-.56.09-.56.61M85 197c1.2 0 1.44-.1 1.44-.69a2.58 2.58 0 0 0-2.3-2.83c-1.08 0-2 1-2 2.83 0 .59 0 .69.58.69z"/><rect width="143.85" height="98.55" x="78.64" y="77.3" fill="#ec2427"/><path fill="#fff" d="M106,151.59a31.39,31.39,0,0,1-6.43-1.19l-1.84,5,4.35,2.78c.62.4,1.4.13,2.63-1l.86.87c-2,2.26-4,4.4-6,6.67-2.65-2.43-5.78-4.83-8.78-4.83-3.46.08-6.68,3.42-3.33,9.46.09.12-.52.76-.87.49C84,167.67,83,161.68,85,158.3a8.2,8.2,0,0,1,8.34-3.81L95,149.8c-1.59-.62-3.3,0-5.44,1.7.72-3.69,3-6.25,7.78-6.89L102.24,133a4.85,4.85,0,0,0-6.18,2.4c-.73-.1-1.24-.35-1.37-.81l5-9.26A9.83,9.83,0,0,1,106,125c7.57,2.4,11.38,15.21,17.06,29.33.52,1.37,1.22,1.49,2.85-.25l1.15,1-10.25,10.18-4.71-14.08c0,.12-2.29.69-6.1.35m21.42-4.76c1.6-1,2.68-.73,2.83.86v9c0,2.47-1.84,2.44-2.42,2.56l7,6.08,6.76-5.95a2.79,2.79,0,0,0-.63-1c-1.12.59-2,.26-2-1.21v-9.11c.6-2.82,4.63-2.19,4.63-.26v9.34c-.11,1.88-.87,2.69-1.72,2.95l6.37,5.27,6.85-5.75c-.11-.47-.11-.88-.71-1.11-.68.06-2,1.38-2-1.57V148c1.4-3.59,4.87-1.71,5,.3v8.35c0,2-.4,3.21-2,3.76l6.63,5.18,7-6.33c0-.43-.61-.87-.83-1-2.3,2-2.18-.52-2.21-.9V145.88c-.09-2-3.86-6.19-8.88-4.3l-5,3.67c-2.67-4.54-6.56-4.66-7.59-4.4-1.7.24-5.3,4.61-5.72,3.93-1.59-3.93-5.8-4-6.66-3.89l-5.9,5.08a1.59,1.59,0,0,0,1.1.86m43,.51c2.89-2,2.83,1.94,2.83,1.94v8.26c0,2.9-1.1,2.35-1.91,2.69a88.19,88.19,0,0,1,8,5.56l8-5,5.91,5.17,7-6.8s-.09-1-.94-1c-2.45,2.4-3.17-1.58-3.17-1.58v-10.1c0-4.41-5.66-5.4-6.85-5.35l-5.7,5.57a2.19,2.19,0,0,0,1.07.9c2.66-2.1,3.12.93,3.12.93v8.27c-.08,3.42-6.28,4.67-6.28,0V145.34c-.52-3.17-5-4.93-5.66-4.37l-6.51,5.35c.31.51.33,1.12,1.14,1m29.43-11c3.37-3.08,4.11,0,4.11.86v19.47c0,3.85-1.54,3.25-2.11,3.38l6.65,5.6,7.62-6.11a1.45,1.45,0,0,0-.69-1.08c-2.61,1.63-2.44-1.66-2.44-1.66V133.66c0-2.91-5.13-6-7.07-5.43l-7.18,7.14a1.34,1.34,0,0,0,1.11,1M106,146.2a12.36,12.36,0,0,0,4.33-.18c-.57-2.44-3-8.22-4.33-9.89a2.23,2.23,0,0,1-.43-.37l-4,9.62s2.07.5,4.39.82"/><rect width="143.38" height="8.08" x="79.11" y="214.62" fill="#ea272a"/></svg>