<svg xmlns="http://www.w3.org/2000/svg" data-name="Layer 1" viewBox="0 0 58.68 62.28"><path fill="#d1d3d4" fill-rule="evenodd" d="M28.9,9.88a12.6,12.6,0,1,1-12.6,12.6A12.61,12.61,0,0,1,28.9,9.88Z"/><path fill="#ed1c24" fill-rule="evenodd" d="M25.11,17.11l-2.58-2.65h7.52v7.59L27.4,19.4C23,22.77,13.51,31.93,13.65,35.08a1,1,0,0,0,.79.93c1.5.43,3.58-.86,7.16-3-.93.78-5.16,4-7.59,4.36-1.44.22-2.37-.78-2.3-2.29.15-2.07,2.8-5.87,5.66-9.31,3.08-3.72,6.45-7.3,7.74-8.66Z"/><path fill="#0072bc" fill-rule="evenodd" d="M35.7,30.93H27.9l-.14-8,3,2.65C35.27,22.19,45.08,13.24,44.94,10a.92.92,0,0,0-.79-.86c-1.21-.07-3.86.57-7.44,2.72.93-.79,5.51-4.08,7.95-4.08,1.5,0,1.79.71,1.79,2.29,0,2.29-2.37,5.66-5.16,9.1-3.15,3.72-6.66,7.73-7.95,9.16l2.36,2.58Z"/><path fill="#0072bc" d="M18.5,46.38h.7a1.11,1.11,0,0,0,.92-.33,1.75,1.75,0,0,0,.27-1.12,1.72,1.72,0,0,0-.29-1.14A1.51,1.51,0,0,0,19,43.48H18.5v2.9Zm0-4.12h.57A1.1,1.1,0,0,0,20,42a1.6,1.6,0,0,0,.24-1,1.29,1.29,0,0,0-.24-.91A1.31,1.31,0,0,0,19,39.8H18.5v2.46Zm-1.65,5.41V38.56h2.73a2.41,2.41,0,0,1,1.74.55,2.21,2.21,0,0,1,.57,1.67,2.82,2.82,0,0,1-.28,1.4,1.18,1.18,0,0,1-.84.6,1.38,1.38,0,0,1,1,.64,2.64,2.64,0,0,1,.35,1.44,3.15,3.15,0,0,1-.6,2.13,2.4,2.4,0,0,1-1.89.68Zm6.43-3.2H25v.59a2.15,2.15,0,0,0,.21,1.14.81.81,0,0,0,.73.31,1.1,1.1,0,0,0,.82-.28,1,1,0,0,0,.28-.8,1.25,1.25,0,0,0-.2-.7A3.47,3.47,0,0,0,26,44l-.87-.62a5.09,5.09,0,0,1-1.43-1.29A2.74,2.74,0,0,1,24.05,39a2.6,2.6,0,0,1,1.88-.66,2.56,2.56,0,0,1,1.94.7,2.71,2.71,0,0,1,.67,2v.2a.53.53,0,0,1,0,.13H26.92v-.24a1.78,1.78,0,0,0-.24-1.06,1,1,0,0,0-.8-.32.86.86,0,0,0-.64.24.93.93,0,0,0-.23.66c0,.39.35.81,1,1.28,0,0,0,0,0,0l.94.63a4.5,4.5,0,0,1,1.35,1.25,2.85,2.85,0,0,1,.36,1.5A2.54,2.54,0,0,1,28,47.22a2.84,2.84,0,0,1-2,.67,2.67,2.67,0,0,1-2.05-.71A3,3,0,0,1,23.26,45c0-.1,0-.27,0-.51v0Zm6.81,3.2V38.56h1.75l2.37,6.37-.05-6.37h1.61v9.11H34l-2.4-6.38.05,6.38Zm7.23,0V38.56H39v7.56h3.06v1.55Z"/><path fill="#231f20" d="M12.81,50.33a4.92,4.92,0,0,1-.11,1.07,2.2,2.2,0,0,1-.31.85.48.48,0,0,1-.4.13s-.07-.07-.07-.23a2.57,2.57,0,0,1,.1-.73c.06-.18.11-.36.17-.55a.64.64,0,0,1,.12-.15.3.3,0,0,0,.08-.2c0-.07-.06-.15-.17-.22a.62.62,0,0,0-.34-.11,1.33,1.33,0,0,0-1.09.78,2.87,2.87,0,0,0-.44,1.51s0,.06,0,.2a.82.82,0,0,1,0,.27,3.79,3.79,0,0,1,.29.62l.34.26a.76.76,0,0,0,.44.14,1.45,1.45,0,0,0,.63-.2l.4-.2s.07,0,.07.06-.13.28-.38.45a1.59,1.59,0,0,1-1,.31,1.31,1.31,0,0,1-1.13-.5A1.35,1.35,0,0,1,9.74,53a1.23,1.23,0,0,1,0-.2.31.31,0,0,0,0-.08.45.45,0,0,1,0-.08,3.23,3.23,0,0,1,.23-1,2.65,2.65,0,0,1,.73-1.17c.06-.15.15-.23.27-.23a1.28,1.28,0,0,1,.51-.39,1.64,1.64,0,0,1,.68-.15.6.6,0,0,1,.67.68Zm2.84,3a.21.21,0,0,1-.11.18,3.84,3.84,0,0,1-.6.4c-.06,0-.09,0-.09-.07s.11-.2.33-.43a3.25,3.25,0,0,1,.39-.37.55.55,0,0,1,.08.29Zm-.41-.86a1.63,1.63,0,0,1-.53,1.14,1.32,1.32,0,0,1-.92.5.55.55,0,0,1-.45-.18.39.39,0,0,1-.12-.28.9.9,0,0,1,.06-.45c-.07,0-.21.1-.42.32a2.65,2.65,0,0,1,0-.4,7.24,7.24,0,0,1,.63-.64c.39-.37.63-.57.71-.63s.26,0,.27.08-.05.09-.1.18l.19-.06a.45.45,0,0,1,.18,0,.55.55,0,0,1,.35.12.43.43,0,0,1,.15.34Zm-.48.37c0-.17-.08-.25-.22-.25a.38.38,0,0,0-.29.16,1.08,1.08,0,0,1-.13.17l-.11,0a.58.58,0,0,0-.13.21,1,1,0,0,0-.08.34.22.22,0,0,0,.06.15.14.14,0,0,0,.12.06.88.88,0,0,0,.42-.23.81.81,0,0,0,.36-.63Zm4,.59-.28.28a.45.45,0,0,1-.31.13c-.13,0-.26-.11-.41-.35s-.24-.36-.29-.36-.26.15-.53.44l-.62.68a.47.47,0,0,1-.3.06s-.07,0-.08-.11V54A2.86,2.86,0,0,1,16,53.6a3.66,3.66,0,0,0,.16-.64l-.06,0s-.12.06-.23.19a3.19,3.19,0,0,1-.39.41v-.44a5.8,5.8,0,0,1,.44-.54,4.84,4.84,0,0,0,.41-.49l.34-.12a.21.21,0,0,1,.19.12.34.34,0,0,1,.05.19,1.86,1.86,0,0,1-.17.66,1.77,1.77,0,0,0-.14.49l.55-.59a.84.84,0,0,1,.58-.33.32.32,0,0,1,.29.21l.15.38c.06.13.13.2.2.2a.21.21,0,0,0,.16-.07l.14-.13s0,0,0,.17a.39.39,0,0,0,.05.2Zm3.11,0-.28.28a.47.47,0,0,1-.32.13c-.12,0-.25-.11-.4-.35s-.25-.36-.3-.36-.26.15-.52.44l-.62.68a.52.52,0,0,1-.3.06c-.05,0-.07,0-.08-.11V54a2.86,2.86,0,0,1,.11-.41,4.88,4.88,0,0,0,.16-.64s-.05,0-.06,0-.12.06-.23.19a3.19,3.19,0,0,1-.39.41v-.44a4.45,4.45,0,0,1,.44-.54c.23-.26.37-.43.41-.49a2,2,0,0,1,.34-.12.22.22,0,0,1,.19.12.45.45,0,0,1,.05.19,2.11,2.11,0,0,1-.17.66,1.44,1.44,0,0,0-.14.49l.54-.59a.86.86,0,0,1,.58-.33.34.34,0,0,1,.3.21l.15.38c.06.13.12.2.2.2a.21.21,0,0,0,.16-.07l.14-.13s0,0,0,.17a.39.39,0,0,0,.05.2Zm1.88,0a3,3,0,0,1-.73.48.88.88,0,0,1-.49.14c-.49,0-.73-.3-.73-.89a1.62,1.62,0,0,1,.44-1c.27-.33.51-.49.72-.49a.39.39,0,0,1,.26.1.27.27,0,0,1,.13.23.88.88,0,0,1-.25.53,5.61,5.61,0,0,1-.71.65.37.37,0,0,0,.42.39,1.08,1.08,0,0,0,.57-.23l.35-.24s0,0,0,0a.85.85,0,0,1,0,.13c0,.08,0,.14,0,.19Zm-1-1.18c-.08,0-.17.06-.26.19a.42.42,0,0,0-.13.23h0a.42.42,0,0,0,.26-.15c.11-.11.16-.19.16-.24a0,0,0,0,0,0,0Zm3.18,1.14c0,.08-.18.21-.46.41a1.69,1.69,0,0,1-.95.36c-.51,0-.75-.26-.73-.78l-.17.15V53.1l1-.81a2,2,0,0,1,.95-.51c.08,0,.11.11.11.33,0,0-.05.09-.16.18a1.39,1.39,0,0,1-.37.23,3.85,3.85,0,0,1-.59.46.59.59,0,0,0-.14.45c0,.17.12.25.35.25a1.14,1.14,0,0,0,.66-.26,1.34,1.34,0,0,0,.4-.38s.06.05.07.14a1.5,1.5,0,0,0,0,.21Zm1.89,0c-.17.16-.32.31-.46.43a4.21,4.21,0,0,1-.64.52.08.08,0,0,1-.08,0l-.08,0a.64.64,0,0,1-.15-.13,4.47,4.47,0,0,1,.19-1.46l-.83.88V53.1q.23-.24.42-.48a5,5,0,0,0,.69-1.07h-.62c-.28,0-.41-.07-.41-.16q0-.42.15-.42h1.05c.06,0,.14-.1.24-.31s.2-.31.28-.31a.16.16,0,0,1,.13.07.24.24,0,0,1,.05.14.76.76,0,0,1-.05.21.46.46,0,0,0-.06.18s0,0,.1.08,0,.22,0,.33,0,.19-.06.19h-.19c-.05,0-.14.28-.28.83A6.31,6.31,0,0,0,27,53.45c0,.09,0,.13.06.13a1,1,0,0,0,.34-.23A3.41,3.41,0,0,1,27.8,53l0,.39Zm1.43-2.85a.81.81,0,0,1-.22.6.53.53,0,0,1-.37.2c-.15,0-.22-.11-.22-.31s.11-.3.33-.44a.4.4,0,0,1,.37-.19c.08,0,.11,0,.11.14Zm.39,2.93a1.38,1.38,0,0,1-.7.4.45.45,0,0,1-.39-.21,2.44,2.44,0,0,0-.14-.28.67.67,0,0,1-.09-.19.16.16,0,0,0-.14-.11s-.11,0-.21.15a2.5,2.5,0,0,1-.29.26V53.1q.74-.81.84-.81a.34.34,0,0,1,.34.27c0,.17.05.33.08.5s.12.27.25.27a.38.38,0,0,0,.22-.1l.23-.19v.45Zm3.19-.06a3,3,0,0,1-.28.28.45.45,0,0,1-.31.13c-.12,0-.26-.11-.41-.35s-.24-.36-.29-.36-.26.15-.52.44l-.63.68a.47.47,0,0,1-.3.06s-.07,0-.08-.11V54a2.86,2.86,0,0,1,.11-.41,5.26,5.26,0,0,0,.17-.64.13.13,0,0,0-.07,0s-.12.06-.22.19a4,4,0,0,1-.4.41v-.44a5.8,5.8,0,0,1,.44-.54,3.69,3.69,0,0,0,.41-.49l.34-.12a.21.21,0,0,1,.19.12.34.34,0,0,1,.05.19,1.86,1.86,0,0,1-.17.66,1.77,1.77,0,0,0-.14.49c.19-.19.37-.39.55-.59a.84.84,0,0,1,.58-.33.32.32,0,0,1,.29.21l.15.38c.06.13.13.2.2.2a.21.21,0,0,0,.16-.07l.14-.13v.17a.4.4,0,0,0,0,.2Zm2.26,0-.86.74c.11.22.17.33.17.34a.92.92,0,0,1,.09.39,1.18,1.18,0,0,1-.51.9,1.33,1.33,0,0,1-.85.38.61.61,0,0,1-.47-.13.42.42,0,0,1-.07-.29,1.28,1.28,0,0,1,.24-.74,2.67,2.67,0,0,1,.45-.49q.24-.21.24-.27a.85.85,0,0,0-.21-.33.84.84,0,0,1-.21-.54v-.11l-.12,0a1,1,0,0,0-.28.24l0-.41a3.78,3.78,0,0,0,.71-.67,1.45,1.45,0,0,1,.11-.22,7.46,7.46,0,0,1,.71-.66.91.91,0,0,1,.55-.25c.1,0,.15.08.15.25a.53.53,0,0,1-.19.41c-.24.19-.57.47-1,.84,0,0-.06.14-.06.32a.7.7,0,0,0,.12.37c.07.11.14.21.21.33L35.09,53v.41ZM33.94,55a.55.55,0,0,0-.21-.41l-.51.57a1,1,0,0,0-.3.5.13.13,0,0,0,.15.15.84.84,0,0,0,.58-.26.77.77,0,0,0,.29-.55Zm3.86-5.22a5,5,0,0,1-.09.6c-.06.34-.12.62-.18.85s-.15,1-.32,2.38a1,1,0,0,0,0,.25.92.92,0,0,1,0,.2s0,.1-.14.17a.57.57,0,0,1-.2.09c-.14,0-.21-.09-.21-.28v-.1a.51.51,0,0,0,0-.09.32.32,0,0,1,0-.08,21.08,21.08,0,0,1,.17-2.17s0-.07,0-.1a.21.21,0,0,0-.09-.14,3.13,3.13,0,0,1,.13-.89,2.16,2.16,0,0,1,.26-.64.18.18,0,0,1,.12-.09l.17,0,.11-.06a.21.21,0,0,1,.12,0c.08,0,.11.06.11.17ZM41,53.43l-.28.28a.45.45,0,0,1-.32.13c-.12,0-.25-.11-.4-.35s-.25-.36-.29-.36-.26.15-.53.44l-.62.68a.52.52,0,0,1-.3.06s-.07,0-.08-.11V54a2.86,2.86,0,0,1,.11-.41,4.88,4.88,0,0,0,.16-.64s0,0-.06,0-.12.06-.23.19a3.19,3.19,0,0,1-.39.41v-.44a4.45,4.45,0,0,1,.44-.54c.23-.26.37-.43.41-.49l.34-.12a.22.22,0,0,1,.19.12.45.45,0,0,1,0,.19,2.11,2.11,0,0,1-.17.66,1.44,1.44,0,0,0-.14.49l.54-.59a.87.87,0,0,1,.59-.33.34.34,0,0,1,.29.21l.15.38c.06.13.12.2.2.2a.21.21,0,0,0,.16-.07l.14-.13s0,0,0,.17a.39.39,0,0,0,.05.2Zm3,0a1.09,1.09,0,0,1-.66.31.6.6,0,0,1-.55-.32,2.35,2.35,0,0,1-.21-.51l-.61.74c-.29.34-.52.51-.69.52s-.32-.07-.32-.24a2.2,2.2,0,0,1,.14-.54l-.23.14,0-.43a10,10,0,0,0,.79-.72c.42-.41.68-.65.78-.73a.45.45,0,0,1,.2-.09h.05l.37-1c.28-.64.52-1,.73-1a.59.59,0,0,1,.1.28,1.87,1.87,0,0,1-.1.43,1.93,1.93,0,0,1-.18.5,1.57,1.57,0,0,1,0,.25c-.09.2-.19.39-.28.59a2.14,2.14,0,0,0-.2.76c0,.57.17.86.5.86A.7.7,0,0,0,44,53v.41Zm-1.39-1.13v-.23a7.16,7.16,0,0,0-.7.8,1.06,1.06,0,0,0-.29.62.8.8,0,0,0,.27-.22l.25-.29a3.29,3.29,0,0,0,.47-.68Zm2.83-1.72a.81.81,0,0,1-.23.6.51.51,0,0,1-.37.2c-.14,0-.21-.11-.21-.31s.11-.3.33-.44a.39.39,0,0,1,.37-.19c.07,0,.11,0,.11.14Zm.39,2.93a1.38,1.38,0,0,1-.7.4.44.44,0,0,1-.39-.21c0-.1-.09-.19-.14-.28a.62.62,0,0,1-.1-.19.14.14,0,0,0-.13-.11s-.11,0-.21.15a3.78,3.78,0,0,1-.29.26V53.1a4.21,4.21,0,0,1,.83-.81.34.34,0,0,1,.35.27c0,.17,0,.33.08.5s.12.27.25.27a.33.33,0,0,0,.21-.1l.24-.19v.45ZM48.5,53v.46a2.29,2.29,0,0,1-.3.25.58.58,0,0,1-.33.09.41.41,0,0,1-.39-.24,1.43,1.43,0,0,1-.1-.44l-.69.62a1.07,1.07,0,0,1-.57.33.25.25,0,0,1-.2-.09.29.29,0,0,1-.09-.21.5.5,0,0,1,.07-.28l-.07,0c0-.13,0-.23,0-.31s.28-.38.84-.88,1-.77,1.13-.77.2.06.2.16a.25.25,0,0,1-.11.22,8.34,8.34,0,0,0-.61.57l-.64.66a1.33,1.33,0,0,0-.14.26,3.38,3.38,0,0,0,.65-.5c.31-.26.51-.4.6-.4s.16.1.16.3V53c0,.19.08.29.24.29l.15-.06A.31.31,0,0,0,48.5,53Z"/></svg>