<svg xmlns="http://www.w3.org/2000/svg" data-name="Layer 1" viewBox="0 0 1600 490"><path fill="#00ffa8" d="M785.24 265.09c-.41 1.79-.84 3.21-1 4.66q-4.05 27.45-8.06 54.9c-3 20.61-6 41.23-9.13 61.83-1.52 10-5.07 13-15.4 13-19.57.06-39.14 0-58.7 0a32.92 32.92 0 0 1-4.45-.22c-7.39-1-12.14-6.83-11.26-14.31 1-8.23 2.3-16.42 3.51-24.63q3.49-23.65 7-47.31 4.83-32.81 9.63-65.63 6-41 12.15-82c3-20.4 6.07-40.79 9-61.21 1.2-8.39 2.94-13.58 16.19-13.8 10-.16 20 0 30 0 8.29 0 16.59 0 24.88 0a63 63 0 0 1 7 .65c4.92.59 8.06 3.52 10.05 7.86.8 1.74 1.5 3.52 2.22 5.29q23.55 57.56 47.1 115.11c.63 1.54 1.38 3 2.26 5 1.57-1.6 1.58-3.3 1.8-4.82q4-26.81 7.89-53.63Q872.39 134.92 877 104a25.2 25.2 0 0 1 1.11-5c1.47-4 4-7 8.45-7.84a40.62 40.62 0 0 1 6.94-.77q28.39-.09 56.79 0a32.39 32.39 0 0 1 6.94.79c6.94 1.57 10.73 7.1 9.72 14.17-1.59 11.15-3.28 22.29-4.93 33.44q-5.5 37.23-11 74.45-6.11 41.32-12.22 82.65-5.4 36.6-10.76 73.2c-.87 5.89-1.72 11.78-2.62 17.66a29.21 29.21 0 0 1-1 4.36c-1.32 4.16-4.07 6.95-8.41 7.84a31.91 31.91 0 0 1-6.33.55c-18.72 0-37.43 0-56.15.05-7.73 0-12.72-.94-16.93-11.32-15.88-39.21-32-78.31-48.11-117.45C787.69 268.92 787.23 266.78 785.24 265.09zM1230.54 278.89a276.5 276.5 0 0 1 7.27-57.48 203.45 203.45 0 0 1 28.87-67.67c16.35-24.62 37.31-44.09 64.2-56.7 21.36-10 43.95-14.8 67.53-13.12 21.28 1.52 41.34 7.29 59.24 19.57a112.24 112.24 0 0 1 42.11 53.17c9 23.32 12.94 47.46 10.7 72.55-2.13 23.86-6.66 47.15-15.74 69.38-10.35 25.34-25.11 47.81-45.3 66.39-19.9 18.33-42.9 31.12-69.47 37.25-15.68 3.62-31.45 5.28-47.47 3.39-18.6-2.2-36.12-7.5-51.79-18.25a104.76 104.76 0 0 1-38-46.9 156.13 156.13 0 0 1-11.32-46.93C1230.87 287.81 1230.71 282.06 1230.54 278.89zm191.3-55.49a106.63 106.63 0 0 0-2.5-26.62c-2.32-9.86-6.34-18.92-13.81-26.13a25 25 0 0 0-13.4-6.89c-9.75-1.66-19.06-.51-27.68 4.65A67.38 67.38 0 0 0 1347.72 183c-8.23 9.68-13.88 20.8-18.28 32.65a143.68 143.68 0 0 0-7.07 75.29A55.74 55.74 0 0 0 1333.65 317a26 26 0 0 0 18.45 10.19 40.39 40.39 0 0 0 28.33-7.46 70 70 0 0 0 18.09-18.68A142.42 142.42 0 0 0 1421.84 223.4zM479.27 90.4c9.14 0 18.29-.06 27.43 0a37.63 37.63 0 0 1 7.57.79c6.94 1.51 10.74 7 9.88 14.11-.59 4.85-1.42 9.67-2.14 14.51q-9.3 62.76-18.61 125.52c-2.15 14.51-4.41 29-6.31 43.54a56.75 56.75 0 0 0-.23 14.61c1.38 10.38 6.7 18.38 16.67 22.38a28.45 28.45 0 0 0 21.76-.35c12-4.86 20.48-13.47 26-25a48.24 48.24 0 0 0 4.32-13.95q6.79-46.69 13.77-93.36 6.12-41.31 12.29-82.62c.5-3.36 1-6.73 1.63-10.06 1-5.38 4.27-8.66 9.78-9.45a46.33 46.33 0 0 1 6.32-.63q28.07-.07 56.14 0a32.57 32.57 0 0 1 6.31.66c7.67 1.56 11.6 7 10.62 14.78-.72 5.69-1.67 11.36-2.51 17q-3.57 24-7.15 47.93-4.89 33.12-9.74 66.24c-2.27 15.35-4.45 30.71-6.94 46-2.88 17.74-7.94 34.8-16.79 50.58-8.39 15-18.66 28.4-31.85 39.5-18.1 15.24-38.77 25-61.91 30-24.52 5.26-48.68 4.36-72.28-4-31.4-11.06-52.07-32.56-61.52-64.78-5.69-19.41-6-38.94-3-58.73q7-46.67 13.78-93.36c3.82-25.86 7.71-51.72 11.42-77.59 1.51-10.5 5.6-14.25 16.55-14.3C460.13 90.37 469.7 90.4 479.27 90.4zM1110.49 170.72a15.06 15.06 0 0 0-2.77-.75c-1.91-.11-3.83-.08-5.74-.08q-44.67 0-89.33 0a48.54 48.54 0 0 1-7.63-.41c-7.53-1.21-11.55-6.34-10.95-13.89.24-3 .81-5.89 1.25-8.84q3.12-21.14 6.26-42.27a38 38 0 0 1 1.17-5.61 10.17 10.17 0 0 1 7.94-7.47 67.29 67.29 0 0 1 6.92-.95 37.59 37.59 0 0 1 3.83 0q108.15 0 216.3 0a48.75 48.75 0 0 1 10.11.87c6.52 1.41 10.21 7.39 9.08 14a19.06 19.06 0 0 1-4.18 8.48q-11.54 14.87-23 29.76Q1179.35 209 1129 274.45q-15.75 20.48-31.5 40.95c-.85 1.11-1.52 2.35-2.46 3.82 2.23 1.13 4.14.8 6 .8q33.49 0 67 0c7.44 0 14.89 0 22.33 0a58.27 58.27 0 0 1 6.31.59c7.9.94 11.7 9 10.69 14.88s-1.77 11.77-2.65 17.66q-2.4 16.08-4.82 32.17c-.25 1.68-.59 3.35-1 5-1.2 5.14-4.54 8.06-9.66 8.83a46.57 46.57 0 0 1-7 .35q-44 0-88 0h-127c-2.34 0-4.68 0-7-.19-11-.88-13.47-12.76-9.56-19 .79-1.26 1.63-2.49 2.54-3.67L1066.5 228.87q20.76-27.08 41.44-54.21C1108.83 173.53 1109.51 172.26 1110.49 170.72zM89.74 390.12c11-16.26 82.87-115.68 96.7-134.75 2-2.72 6.46-5.1 10.55-1.5l4 3.67c18.45 16.36 31.8 27.47 50.23 43.85.86.76 1.73 1.5 2.62 2.24a4.14 4.14 0 0 0 6.07-.82c.5-.73.94-1.47 1.44-2.16q22.65-31.23 45.21-62.53 28.2-39 56.41-78l0 0a4.12 4.12 0 0 1 7.07.69l.17.36c5.49 10.9 8.81 22.54 11.41 34.4 4.26 19.42 3.28 38.81-.28 58.25-5.78 31.53-19.67 59.08-40.26 83.41A176.88 176.88 0 0 1 267 389.56a150.32 150.32 0 0 1-53 10q-55.49 0-111 0a36.29 36.29 0 0 1-5.71-.39 10.58 10.58 0 0 1-7.6-4.42A4.1 4.1 0 0 1 89.74 390.12z"/><path fill="#00ffa8" d="M249.45,243.24c-.39.7-2,3.17-5.24.78a26.57,26.57,0,0,1-2.53-1.92c-18.57-15.9-34.45-29.58-53-45.52-5.24-4.73-10.36-2.56-12.91,3.2-12.05,24.86-22.27,45.61-34.3,70.48Q116.9,321.05,92.29,371.83c-1.5,3.42-3.57,2.56-3.35,1h0q3.59-24.6,7.22-49.19l10.89-73.79q5.45-36.9,10.86-73.79,4.92-33.42,9.85-66.85c.4-2.73.77-5.48,1.43-8.16,1.28-5.17,4.27-8.74,9.83-9.54a44.71,44.71,0,0,1,6.32-.57c36.57,0,73.13-.21,109.7,0a132.15,132.15,0,0,1,60.78,14.67l.39.21C315,108.49,272.18,196.33,249.45,243.24Z"/></svg>