<svg xmlns="http://www.w3.org/2000/svg" data-name="Layer 1" viewBox="0 0 436.32 406.08"><polygon fill="#f5333f" points="139.01 301.36 107.46 301.36 107.46 274.43 87.45 274.43 87.45 347.57 107.46 347.57 107.46 318.27 139.01 318.27 139.01 347.57 158.97 347.57 158.97 274.43 139.01 274.43 139.01 301.36"/><path fill="#f5333f" d="M187.76 302.42c1.69-9.88 7.14-15 16-15s15 6.09 15.32 15zm16.1-29.93c-22 0-36.77 15.19-36.77 38 0 23.71 14.59 38.77 37.4 38.77 18.22 0 30.73-8.35 35.41-24.18H218.31c-1.95 5.78-6.52 8.69-13.39 8.69-10.32 0-16.51-6.13-17-16.75h52c0-2.56.15-3.47.15-4.69 0-24.63-14-39.82-36.19-39.82M274.06 273.79c-7.08 1.4-25.23 6.87-25.23 34.56v39.22h20.22v-32.4c0-12 1.66-17.62 6.67-21.25 3.06-2.44 7.48-3.8 12.62-3.8a25 25 0 0 1 5.48.6v-16.6s-8.08-2.62-19.76-.33M333.83 334c-10.66 0-16.87-8.65-16.87-23.09 0-14.59 6.09-23.11 16.87-23.11s16.73 8.38 16.73 23c0 14.76-6.1 23.24-16.73 23.24m0-61.53c-22.67 0-37.27 15-37.27 38.44 0 23.24 14.6 38.31 37.27 38.31 22.47 0 37.09-15.07 37.09-38.31 0-23.4-14.62-38.44-37.09-38.44"/><polygon fill="#231f20" points="247.86 24.12 247.86 121.45 294.12 89.4 294.12 58.29 247.86 24.12"/><polygon fill="#231f20" points="294.12 197.48 294.12 130.6 247.86 163.87 294.12 197.48"/><polygon fill="#f5333f" points="167.09 193.59 213.36 227.22 213.36 88.01 167.09 53.85 167.09 193.59"/></svg>