<svg xmlns="http://www.w3.org/2000/svg" data-name="Layer 1" viewBox="0 0 76.32 39.42"><path fill="#0066b3" fill-rule="evenodd" d="M28 30.1c.44-.13.36.91-.1 1s-.27-.92.1-1zM19.5 30c.48-.24.43 1-.09 1.17s-.25-1 .09-1.17zm-8.11.2A1.84 1.84 0 0 1 12 30c.12 0 .62-.12.69 0s0 1.25.48 1.54a.91.91 0 0 0 .82 0 1.48 1.48 0 0 0 .26-.24c.07-.07.18-.24.25-.27s.18.43.42.56.52-.14.69-.23c-.06.54.37.15.55 0s.82-.85 1.06-.81.43.72.57.92c.29.42.66 0 .87-.29 0 .22 0 .29.18.4s.67 0 .87-.19A3.05 3.05 0 0 1 20 31c.09 0 .19.48.54.54s.61-.3.76-.31.12.29.36.31a.56.56 0 0 0 .48-.2c.06-.06.11-.1.17-.17s.37-.49.53-.49c.17.2 0 1 .58.82a.85.85 0 0 0 .3-.21 2.94 2.94 0 0 0 .46-.52l.39-.59c.28 0 .45.59.26.82s-.54-.18-.64.16.68.66 1.38.08c.07-.06.26-.28.34-.29s.14.46.52.59a.68.68 0 0 0 .47 0c.16-.07.19-.16.29-.27a.86.86 0 0 1 .1.16c.23.31.68.14.91-.07.07-.07.19-.25.25-.29s.15.34.35.47.42 0 .6-.11c.06.09.05.37.47 0s.56-.53.87-.77.35-.2.5 0 .46 1.55 1.13.53c.09-.13.28-.48.07-.59s-.36.68-.68.19a5.12 5.12 0 0 1-.32-.86c-.24-.71-.5-.24-.85.21-.06.08-.18.29-.29.31s-.13-.5-.24-.64-.23 0-.29.24-.08.29-.12.44a2.7 2.7 0 0 1-.12.43.39.39 0 0 1-.36.19c-.33-.07-.35-1-.37-1.29a.18.18 0 0 0-.12-.17c-.3-.16-.27.11-.3.2s-.19-.28-.5-.2-.52.49-.62.78a1.7 1.7 0 0 1-.21.51c-.32.4-.59 0-.63-.45a4.82 4.82 0 0 1 .14-1.26c.22 0 .77.08.82-.15s-.52-.22-.73-.24a3.07 3.07 0 0 0 0-.68.4.4 0 0 0-.26-.08c-.19 0-.23.68-.32.75s-.6-.07-.65.17.4.23.6.24c0 0-.12.87-.14 1a.81.81 0 0 1-.14.42c0 .06-.22.25-.35.2a1.84 1.84 0 0 1-.05-.35 1.51 1.51 0 0 0-.11-.32c-.13-.29-.66-.88-.93-.61-.09.1 0 .22 0 .37a2.49 2.49 0 0 1-.47.77c-.08.08-.37.39-.54.18s.12-1.39-.34-1.35a2.71 2.71 0 0 0-.22.39 2.36 2.36 0 0 1-.53.71.54.54 0 0 1-.45.19c-.17-.1.13-.92.07-1.16a.25.25 0 0 0-.31-.12c-.09.05-.19.92-.33 1.24-.26.6-.57.34-.72-.17a7.54 7.54 0 0 1-.12-2.18c0-.16.05-.25-.07-.32a.43.43 0 0 0-.32-.05 9.8 9.8 0 0 0-.17 1.57c-.1 0-.19-.11-.33-.11-.32 0-.56.39-.68.67s-.12.48-.27.63c-.75.73-.72-1.2-1.13-1.28s-.69.86-.91.88c-.16-.14-.13-.46-.24-.65-.38 0-.34.79-.53 1.07s-.79.4-.78-.29c0-.23.14-.37 0-.71s-.55-.24-.6.59a.85.85 0 0 1-.28.52.38.38 0 0 1-.55.09c-.31-.28-.24-1.75-.18-2.12l.15-.66c0-.24-.32-.28-.51-.17s-.22.88-.3 1.3a4.44 4.44 0 0 1-1.3.15 8.25 8.25 0 0 1-.08-.95c0-.33 0-.69-.46-.56s-.17.39-.11.72a5.16 5.16 0 0 1 .06 1c0 .49 0 1-.09 1.45 0 .19 0 .32.09.39a.46.46 0 0 0 .43 0c.11-.08.11-.26.12-.41 0-.33 0-.65.06-1zM67 30.52c-.11.78-.89 1-.69.13a1.26 1.26 0 0 1 .33-.63.22.22 0 0 1 .33.06 1.07 1.07 0 0 1 0 .44zm-2.44.34c-.29-.3-.07-1 .22-.82s.16.32.11.49a.46.46 0 0 1-.33.33zM55.9 31c.14.09.16.42.43.54s.51-.13.68-.23c-.09.8.86-.38 1.19-.67s.45 0 .42.47c0 .16-.08.46.11.47s.28-.2.34-.27.43-.57.54-.68c.42-.41.44 0 .49.43s.11.69.59.44A4.58 4.58 0 0 0 61.4 31c.17.1.18.64.67.59s.56-.5.72-.53c.11.2.2.43.52.52a1 1 0 0 0 .81-.22 1 1 0 0 0 .37.2 1.26 1.26 0 0 0 .9-.22c.14-.1.24-.25.33-.25.08.18 0 .28.2.42a.56.56 0 0 0 .51.08c.44-.12.56-.52.68-.55s.25.65.75.53a.9.9 0 0 0 .42-.23c.13-.13.24-.22.12-.45-.13 0-.13.16-.35.22-.82.22-.56-2.61-.58-2.83s-.25-.23-.39-.17a10.86 10.86 0 0 0-.19 1.58c-.11 0-.33-.3-.71.07s-.37.9-.79 1.25c-.16.13-.55.27-.73 0l.35-.27a1.11 1.11 0 0 0 .27-.37c.21-.57-.5-1.44-1.1-.36A1.51 1.51 0 0 0 64 31.11c-.47.21-.7-.09-.76-.55a4.42 4.42 0 0 1 .15-1.3c.13-.09.75.1.81-.16s-.51-.24-.74-.24c0-.3.14-.65 0-.73a.35.35 0 0 0-.25 0 2.79 2.79 0 0 0-.27.74c-.21 0-.63-.05-.66.18s.42.21.6.22c0 0-.14 1.08-.17 1.19-.16.81-.84 1-.9.21a4.45 4.45 0 0 0 .07-.63c0-.18-.11-.42-.33-.32s-.26.8-.36 1a.69.69 0 0 1-.36.33c-.27.12-.28-.13-.31-.34a2.84 2.84 0 0 0-.28-1.1c-.15-.17-.36.06-.44.14s-.53.68-.7.69c-.17-.19-.16-1.11-.56-.8s-.51.76-.69.81c-.19-.13-.13-.62-.26-.65-.31-.06-.35.84-.49 1.05a.63.63 0 0 1-.33.27.31.31 0 0 1-.41-.19c-.15-.4.13-.69 0-1.08s-.44-.21-.55.29 0 .58-.42.82a1.92 1.92 0 0 1-1 .15c-.17-.06-.19-.21-.21-.41a5.82 5.82 0 0 1 .16-2.2c.06-.2.1-.34-.12-.42a.47.47 0 0 0-.44.11 1 1 0 0 0-.15.47 7.41 7.41 0 0 0-.09 2.25 1.26 1.26 0 0 0 .16.46.4.4 0 0 0 .39.22 2.91 2.91 0 0 0 1.51-.33l.18-.12c.06 0 .11-.12.17-.14zm-12.21-.15c-.28-.36 0-.94.24-.81s.13.78-.24.81zm-1.37-2.35c.16-.09.24.14.25.28a2.74 2.74 0 0 1-.25 1.41c-.22.37-.23-.66-.23-.78s0-.79.23-.91zm-4.5 1.28c-.26 0-.3.24-.35.45s-.11.44-.17.65-.2.55-.08.65.47-.2.52-.26.69-.64.86-.75.37.06.46.23.16.38.26.56c.5.86.78-.72 1-.3.16.24.27.57.67.56a1.16 1.16 0 0 0 .61-.2c.29-.19.29-.27.51-.07a.7.7 0 0 0 .57.25 1.2 1.2 0 0 0 .6-.22.64.64 0 0 0 .53.24 1.35 1.35 0 0 0 .61-.17c.43-.24.69-.74.81-.72s.17.6.41.8.69-.09.82-.25a2.29 2.29 0 0 0 .42-.79c.06-.2.24-.88 0-1s-.52.21-.48.69a1.72 1.72 0 0 1 .06.53.86.86 0 0 1-.19.43c-.27.24-.45-.42-.51-.63a2.73 2.73 0 0 0-.31-.9c-.23 0-.28.28-.35.49a2 2 0 0 1-.68 1c-.18.11-.51.14-.64 0 .1-.1.5-.29.62-.64a.71.71 0 0 0-.37-.86c-.44-.11-.82.55-.9 1a1.77 1.77 0 0 0 0 .59.6.6 0 0 1-.79-.28c-.07-.12 0-.19.12-.42s.13-.27.19-.41c.19-.52.33-1.63 0-2s-.62 0-.76.21a3 3 0 0 0-.24 2 3.19 3.19 0 0 0 .13.47c0 .1-.18.27-.28.32a.54.54 0 0 1-.8-.23c-.14-.35.14-.62 0-1-.11-.25-.43-.21-.54.39a1.3 1.3 0 0 1-.11.49c-.06.12-.15.3-.33.27s-.44-.88-.59-1.21c-.24-.49-.58.17-.9.56s-.25-.15-.41-.5zm-1.21-1.55a.46.46 0 0 0-.27.32c-.12.47.28.64.17 1.56a2 2 0 0 1-.29.89c-.36.49-1.59.65-1.32-1.63A4.47 4.47 0 0 0 35 28.33c-.08-.14-.36 0-.43.08a.78.78 0 0 0-.19.41 3.37 3.37 0 0 0 0 2.06 1.1 1.1 0 0 0 .57.61 1.57 1.57 0 0 0 1 .07c1-.31 1.1-1.63 1-2.54 0-.27 0-.9-.4-.78zm11.07 2.52a1 1 0 0 1 0-.56c.19-.45.73-.07.41.34a.69.69 0 0 1-.44.22zm2.16 0c-.28 0-.17-1-.33-1.12s-.3.31-.36.5a2.25 2.25 0 0 1-.29.58c-.43.63-1 .5-1.06.25a3.17 3.17 0 0 1 .37-.16c.48-.2.67-.63.37-1s-1-.16-1.25.47 0 1.32.75 1.28a1.53 1.53 0 0 0 1.2-1c.09.11.13.68.27.87.32.44.58-.68.92-1.22.1-.17.44-.65.62-.33a.32.32 0 0 0 .4.14.3.3 0 0 0 .19-.37c-.1-.4-.94-.57-1.42.3-.11.2-.32.73-.38.79zm6.32-2.68c-.42.11-.34.85.1.73a.43.43 0 0 0 .28-.42.29.29 0 0 0-.38-.31zm5.52 0c-.42.11-.36.85.1.72a.44.44 0 0 0 .28-.41.3.3 0 0 0-.38-.31zM40.57 28c-.42.14-.32.87.13.72a.45.45 0 0 0 .26-.42.3.3 0 0 0-.39-.3zm-25.83.05c-.41.13-.32.87.13.72a.44.44 0 0 0 .27-.42.3.3 0 0 0-.4-.3zM32.21 10.14a.31.31 0 0 0 .16.11l.42.11c.08 0 .15 0 .19.1s-.11.12-.18.17l-.22.13c-.91.54 0 .44.16.45s.38 0 .56.08c0 .15-.25.36-.35.49s-.62.61-.62.85.23.07.3 0a4.12 4.12 0 0 0 .47-.23 2 2 0 0 1 .64-.29c.06.08 0 .06 0 .17s-.16.77.11.77c.09 0 .22-.11.28-.16.34-.32.31-.31.4.34a1.35 1.35 0 0 0 .05.29.4.4 0 0 0 0 .13c.07.12.16.11.23 0a.59.59 0 0 0 .06-.14c.09-.25.16-.62.23-.79a.4.4 0 0 1 .07-.13c.22 0 .24.33.42.33s.09-.56.27-.56.56.41.73.53.4.26.4 0c0-.44-.41-.9-.41-1.25 0-.15.53.07.62.1s.83.31.8 0-.93-1-.93-1.21.84-.33.84-.5-1 0-1.28.11-.24.28.1.63c.12.11.35.31.35.48s-.55-.07-.6-.09c-.23-.09-.43-.16-.43.1a2.64 2.64 0 0 0 .24.7.5.5 0 0 1 .07.26c-.12 0-.43-.35-.55-.44s-.15-.13-.22-.13 0 .62-.15.62-.19-.41-.35-.41-.14.68-.33.73-.07-.26-.07-.4c0-.86-.35-.14-.51.07s-.14.07-.14 0c0-.28.19-.76 0-.76a1 1 0 0 0-.35.13 1.08 1.08 0 0 1-.39.16c-.23 0 .58-.6.58-.79s-.87-.06-.85-.29.6-.36.6-.55S32.67 10 32.35 10c-.1 0-.1 0-.14.11zM40.38 23.86a.22.22 0 1 1 .44 0c0 .25-.44.25-.44 0zm-2.13-.05a.45.45 0 0 1-.14.31.72.72 0 0 1-.74 0l-.13-.35a.67.67 0 0 0-.09-.14.88.88 0 0 0-.42-.34.65.65 0 0 1-.69.82l-.36 0c0 .07.2.21.26.26a1 1 0 0 0 .34.18 1.84 1.84 0 0 0 .44.07c.43 0 .38.14.71.34a2.33 2.33 0 0 0 1.51.37A2.42 2.42 0 0 0 40 25a.5.5 0 0 0 .47.31c.25 0 .83 0 .83-.29S41.11 25 41 25a1.45 1.45 0 0 1-.29 0h-.14l-.13 0a.73.73 0 0 1-.23-.09 1 1 0 0 1-.34-.28.76.76 0 0 1-.12-.19c-.06-.11-.12-.26-.31-.07l-.14.11c-.68.53-1.67.39-1.73.16a2.17 2.17 0 0 0 1.23-.15c.54-.23.64-.58.85-.58s.19.1.25.23a1.12 1.12 0 0 0 .18.28c.29.31.75.53 1 0 .07-.16.1-.38.18-.54 0 0 .1 0 .18 0a.12.12 0 0 0 .06-.11c0-.13-.14-.15-.18-.24s0-.27-.21-.27c-.07 0-.1.1-.11.16a1.65 1.65 0 0 0-1-.06 1.54 1.54 0 0 0-.61-.41.92.92 0 0 1-.16.39 1 1 0 0 1-.26.29 1.31 1.31 0 0 1-.35.19 1.7 1.7 0 0 1-.47.1zM44.12 14.9v0c.13 0 .14 0 .28.21a.57.57 0 0 0 .11.11c.06 0 .09 0 .15 0s-.06-.42.08-.34.1.19.14.26.11.18.2.21a.07.07 0 0 0 .09 0s0 0 0 0 0-.06 0-.1 0-.15.06-.15.07.1.08.17c.06.32.32.28.33.45-.21 0-.31-.12-.56.13 0 0-.21.22-.21.06s.16-.18.19-.31c-.17-.24-.57.24-.8.19 0-.17.21-.2.2-.3s-.54.06-.67-.08c0-.08.09-.08.17-.09s.15 0 .2-.08-.11-.18-.11-.27zm-.73-.45A1.81 1.81 0 0 0 44.2 16 2.17 2.17 0 0 0 46 15.94a.78.78 0 0 1 .5 1.32s-.11.13-.14.13-.2-.16-.2-.31.17-.83 0-.83a1 1 0 0 0-.41.25c-.26.32-.31.59 0 .86a4.19 4.19 0 0 0 .42.24s-.26.45-.34.65l0 .1a7.66 7.66 0 0 0-.54-1.46.78.78 0 0 0-.45-.37 2 2 0 0 0-.35-.05s0 0 0 .06l.13.19c.34.44 1.08 1.09 1.06 1.78a.31.31 0 0 0 0 .1 2.47 2.47 0 0 0-.87-1.21l-.27-.24c-.26-.3-.21-.81-.67-.92.16.31-.29.82.09 1.1a1.12 1.12 0 0 0 .35.15 1.29 1.29 0 0 1 .92.59 3.13 3.13 0 0 1 .33.66 3 3 0 0 1 .12.4h0a2.79 2.79 0 0 1 .18-.34c.11-.14.17-.21.36-.21s.21.31.21.46a1.18 1.18 0 0 0 .43-.82c0-.12 0-.29-.17-.32s-.27.12-.37.22-.16.23-.34.27c.14-.61.85-1.07.85-1.66a1.14 1.14 0 0 0-.64-1c-.37-.23-.2-.11-.49-.49l-.38-.43a1.26 1.26 0 0 0-1.15-.27 1.18 1.18 0 0 1-.76-.08c-.1-.06-.09-.06-.09 0zM42.15 11.21l.25.09c.06 0 .05 0 .06.06l-.31.07c0 .12.1.16.11.28s-.21-.08-.26-.08-.14.2-.26.24l0-.32a1.45 1.45 0 0 0-.3 0c0-.13.11-.1.21-.25s-.18-.14-.21-.27h.29a1.16 1.16 0 0 0 .11-.31s0 0 .06.06S42 11 42 11s.16-.08.28-.08-.13.15-.14.27zm.11-.55c-.19 0-.12-.36.47-.36a.85.85 0 0 1 .67.29 1.28 1.28 0 0 1 0 1.45.94.94 0 0 1-1.09.23c-.07 0-.23-.12-.23-.22a.15.15 0 0 1 0-.06c.12 0 .18 0 .33.1.64.31-.08-.41.28-.36.18 0 .49.12.49 0s-.36-.31-.36-.47l.38-.17c.05 0 .07 0 .07-.11s-.36 0-.62-.1c0-.15.22-.34.06-.34s-.33.11-.47.11zm-.75-.25c-.25-.06-.47-.28-.67-.28 0 .23.34.51.34.65s-.34.2-.34.29.44.15.35.35-.37.19-.37.38l.08 0 .11 0c.05 0 .19 0 .19.07v0c0 .13-.38.63-.25.63s.21-.13.27-.18.29-.32.35 0a.56.56 0 0 0 0 .23c.12 0 .2-.27.27-.27s.43.3.81.3a1.28 1.28 0 0 0 .67-.13 1.32 1.32 0 0 0-.26-2.49c-.71-.14-.89.14-1.21.14-.08 0-.17-.2-.27-.2s0 .25-.12.41zM33.24 17.82l0 0c-.14-.14.08-.57.08-1.05 0-.12-.21-.36-.37.42 0 .18 0 .52-.19.65-.09-.05-.11-.09-.11-.27s.08-.58-.06-.58-.22.37-.24.51a4 4 0 0 0 0 1.46c.19 1 .69 0 .69-.15s-.24-.32-.1-.57.31.07.36.12c.23.24.3.27 0 .75a2.56 2.56 0 0 0-.64 1.48A1.5 1.5 0 0 0 33.4 22c.08.05.14.12.19.13 0-.15.26-.42-.05-.79s-.63-.47-.63-.9a.86.86 0 0 1 .14-.46.51.51 0 0 0 .09.16.73.73 0 0 0 .54.17c0-.1-.23-.16-.23-.5A4.51 4.51 0 0 1 34 18.43 4.61 4.61 0 0 0 34.48 17c0-.17-.16-.38-.32.1a2.84 2.84 0 0 1-.13.35 2.64 2.64 0 0 1-.27.46c-.08.09-.13.1-.13 0a3.38 3.38 0 0 1 .18-.62 2.8 2.8 0 0 0 .17-.63c0-.09-.12-.36-.32.1-.12.29-.17.51-.25.72s-.07.27-.17.34zM39.52 21.15a1.6 1.6 0 0 0 .16.83 1.56 1.56 0 0 0 .76.78 1.63 1.63 0 0 0 1.81-.29 1.55 1.55 0 0 0 .43-1c-.06 0 0 .05-.19.1a1.94 1.94 0 0 1-1.66-.14c-.1-.07-.14-.13-.23-.15a.22.22 0 0 0-.09.2c0 .2 0 .11-.17.11s-.07.5.61.5c.43 0 .7-.3.7-.07 0 .08-.09.13 0 .19s.18 0 .18.1-.82.38-1.34 0a.92.92 0 0 1-.42-.76c0-.81 1-.53.9-.92a.17.17 0 0 0-.16-.12c.19-.28.64 0 .79-.19s-.07-.3-.28-.31c.06-.19.4 0 .4-.25s-.22-.16-.32-.17a1.69 1.69 0 0 0-1.25.4 1.85 1.85 0 0 0-.34.4 1.55 1.55 0 0 0-.24.75z"/><path fill="#0066b3" fill-rule="evenodd" d="M45.28 12.05c.06 0 .21 0 .36-.12a1.35 1.35 0 0 0 .31-.19.92.92 0 0 0 .3-.69.34.34 0 0 1 .24.34.58.58 0 0 1-.4.53 1.82 1.82 0 0 1-.81.13zm.94-1.69a.15.15 0 0 1 .13-.14.14.14 0 1 1-.13.14zm-.26 0c0 .13.12.78-.16.78-.48 0-.13-.56-.13-.77 0-.42-.84-.35-1.16-.3l-.33.08c-.06 0-.06 0-.07.07s.36 0 .82.37a.58.58 0 0 1 .2.21 1.71 1.71 0 0 0-.82.2c.11.15 1 .17 1 .63a.25.25 0 0 1-.22.25c-.32 0-.34-.08-.56-.27s-.1.17-.09.27a.55.55 0 0 1 0 .25.81.81 0 0 1-.16.16l-.11 0c-.05 0-.07 0-.09.08s.29.07.44.09a3.53 3.53 0 0 0 1.79-.23 1.16 1.16 0 0 0 .53-1.46c0-.18-.2-.47 0-.68 0 0 0 0 .07-.06-.21 0-.42-.12-.58-.09a.38.38 0 0 0-.34.37zM36.25 15.89c-.07-.08-.36-.77-.82-.77s-.38.4-.32.63c0 0 0-.12.24-.12a1 1 0 0 1 .71.43 1.69 1.69 0 0 0-.92 0 .77.77 0 0 0-.38.7l.05.16c0-.17.31-.39.44-.47a1.45 1.45 0 0 1 .75-.16 1 1 0 0 0-.21.56c0 .1 0 .16-.11.16 0 .26.15.42.15.63s0 .06 0 .14c0 .23.23.35.23.56s-.07.11.17.3.14.27.29.27a.28.28 0 0 0 .23-.21c0-.09-.1-.14-.14-.21a1 1 0 0 1-.11-.26c-.16 0-.13-.17-.16-.39a1.43 1.43 0 0 0 0-.16c-.11-.05-.11 0-.11-.23s0-.26 0-.44c-.19-.05 0-.34.09-.46a1.15 1.15 0 0 0 .06-.17.83.83 0 0 1 .39.62 1.92 1.92 0 0 1 0 .39c.21-.05.61-.33.61-.65s-.41-.48-.7-.54h0l.12 0a1.58 1.58 0 0 1 .89 0 .37.37 0 0 1 .2.29c.05 0 .05 0 .1-.15a.44.44 0 0 0-.15-.58 1.1 1.1 0 0 0-1.11.17l-.19.12a1 1 0 0 1 .29-.42c.06-.05.11 0 .21 0a.88.88 0 0 0-.17-.31c-.27-.28-.48-.26-.53.14a4.28 4.28 0 0 0 0 .52zM34.51 22.06a.91.91 0 0 0 .19.61.89.89 0 0 0 1 .34.53.53 0 0 0 .12-.87.51.51 0 0 0-.42-.19.21.21 0 0 0-.11 0c-.11.09-.09.41.42.41h.08c0 .1 0 .13-.07.2a.55.55 0 0 1-.78-.34c-.18-.75 1.21-.71 1.21.43s-1.86.74-1.86-.59a1.3 1.3 0 0 1 0-.45c-.23 0-.5.42-.5.73A1.09 1.09 0 0 0 34 23a1.57 1.57 0 0 0 .32.4 1.6 1.6 0 0 0 1 .43c.51 0 .84-.08 1.06-.55a1.53 1.53 0 0 0-.56-1.72 1 1 0 0 0-.66-.16.69.69 0 0 0-.64.63zM44.88 21c.44 0 .75.57.23.57s-.48-.57-.23-.57zm-2 .87c0 .16.08.37.19.37.32 0 .83-.54 1.08-.8a.22.22 0 0 1 .2-.08.27.27 0 0 1-.09.34 5.48 5.48 0 0 1-.57.46l-.13.12c-.12.11-.13.18 0 .3a.85.85 0 0 0 .32.24c.4.15.53 0 .75-.25s.36-.54.48-.64.1 0 .1.15a1.14 1.14 0 0 1-.39.64 1.39 1.39 0 0 1-.47.29c-.31.14 0 .45.15.45s.36-.22.43-.29c.47-.47 1-1.1.73-1.83a.92.92 0 0 0-.32-.41l-.16-.09a1 1 0 0 0-1 .1c-.38.37-.3.56-1 .77-.06 0-.23.06-.23.16z"/><path fill="#0066b3" fill-rule="evenodd" d="M37 14.59a.39.39 0 0 1-.08-.3s.1-.21.21-.22a.48.48 0 0 1-.13.52zm-.61-.17c-.17 0 0-.69.18-.69s.11.33.11.42a.59.59 0 0 1-.29.27zm.93.5c-.16 0 0-.62 0-.66a1.89 1.89 0 0 1 .09-.21c0-.07 0-.14.14-.15.1.2-.1 1-.26 1zm-1.4-.31c-.06 0-.06 0-.06-.08 0-.25.25-1.21.41-1.21s0 .59-.06.69-.17.6-.29.6zm-.58-.94c.42-.28.45 0 .38.35s-.35.42-.44.28 0-.38-.17-.38-.33 1 .58 1a1.17 1.17 0 0 0 .73-.25l.11-.09a1.29 1.29 0 0 1 .21-.2c0 .25.25.92.72.92a.52.52 0 0 0 .52-.49c-.05 0-.27.18-.27-.2 0-.14 0-.45.16-.45s.07.12.08.21 0 .16.07.23a.13.13 0 0 0 .09-.12c.12-.37 0-1-.51-1a.68.68 0 0 0-.44.19 2.93 2.93 0 0 0-.3.34c0-.09 0-.1 0-.18a.89.89 0 0 0-.34-.71.77.77 0 0 0-.91.08.92.92 0 0 0-.29.44zM40.88 17.44a.61.61 0 0 0 .36.52l.28.15c.37.24.14.62-.09.39 0-.05 0-.08-.11-.13s-.37-.13-.4.16c0 .14.09.43 0 .66 0 .06-.12.11-.14.17a1.08 1.08 0 0 0 .58-.21c.23-.18.26-.4.46-.4s-.11.31-.11.47c0 .43.82.44.61 0-.08-.15-.21-.22-.21-.4s.49-.07.49 0-.18.3-.05.3a1.87 1.87 0 0 0 .71-.14c.27-.1.15-.22-.16-.47-.59-.47-.47-.22-.47 0s-.27.08-.36 0a.19.19 0 0 1-.11-.16c-.1-.42.72-.32.81-.7l-.18 0-.16-.06c-.12-.06-.49-.27-.58 0s.12.52-.12.52.07-.6-.18-.85-.59-.19-.59-.51h0a1.86 1.86 0 0 0-.21.66zM37.69 17c0 .51-.86.61-.86 1.05s.83.59.83.86-.22.08-.35 0l-.1-.06c-.05 0-.05-.06-.1-.07a.41.41 0 0 0-.11.12.94.94 0 0 0 .19 1.32 1.22 1.22 0 0 0 1.05.26h0a.62.62 0 0 1-.4-.22c-.38-.5.3-1 .3-1.35s-.43-.38-.43-.7.75-.64.21-1.22a1 1 0 0 0-.34-.25.71.71 0 0 1 .08.28z"/><path fill="#0066b3" fill-rule="evenodd" d="M38.88 20.73c.19 0 0 .36-.1.54s-.28.27-.39.18 0-.19 0-.27c0-.31.13-.18.4-.38 0 0 .07-.07.1-.07zm-.78-.93c0 .43.51.38.51.68s-.85.37-1.28.15-.29-.33-.47-.33-.13.3-.13.4a1.25 1.25 0 0 0 .41.8 1.32 1.32 0 0 0 2-.26 1.19 1.19 0 0 0 .13-.64c0-.59-.61-.63-.82-.83a.59.59 0 0 1-.17-.39s-.06 0-.08.08l-.06.1a.57.57 0 0 0-.06.24zM43.29 18.05c-.25.06-.24 0-.36.06 0 .14.48.26.68.53a.37.37 0 0 1 0 .45 1.07 1.07 0 0 1-.65.37c-.15 0-.27 0-.28.12l.08 0c.12 0 .3.05.28.13s-.35.49 0 .28.18.13.38.24c.14-.2 0-.55.23-.89s.4-.13.4.28-.21.53-.21.7.22-.14.32-.14.34.53.34.22-.14-.37.14-.39a.53.53 0 0 0 .19-.05c-.07-.1-.26-.13-.43-.29s-.3-.62-.18-.62c.48 0 .56.56.74.68.11-.17 0-.38.11-.38s.18 0 .35 0c0-.07-.09-.1-.17-.14s-.22-.13-.08-.31.1-.1.1-.19c-.16 0-.27.11-.53.17-.66.14-.62-.25-.2-.39.19-.06.39 0 .46-.14s-.29-.06-.32-.13.3-.58 0-.31-.28-.12-.45-.12 0 .17 0 .43 0 .45-.18.5-.21-.17-.21-.32.15-.47.09-.71c-.1 0-.11 0-.17.1s-.1.12-.16.12-.3-.53-.3-.11v.22zM34.78 17.72zm0 0a2.28 2.28 0 0 0 .19 1 1.29 1.29 0 0 1 .07.54.17.17 0 0 1-.13.18c-.16 0-.13-.06-.2-.11-.17.13 0 .6.42.44s0-1.2-.1-1.57a1.36 1.36 0 0 1 0-.8l0-.1c0 .07 0 .16 0 .22a1.57 1.57 0 0 0 0 .23A9.71 9.71 0 0 0 36 19.52c0 .14.07.3-.08.36s-.27 0-.27-.22a.14.14 0 0 0-.12.09c-.22.39.34.79.69.5s.1-.83-.11-1.15a8.06 8.06 0 0 1-.65-1 1.48 1.48 0 0 1-.05-1.36A2 2 0 0 0 35 17c-.88.87-.4 1.87-.7 2.06a.25.25 0 0 1-.21 0c-.08 0-.06-.09-.15-.1a.32.32 0 0 0 .25.47.44.44 0 0 0 .29-.1.53.53 0 0 0 .15-.25c.09-.37-.08-1 .14-1.38l0 0zM42.46 24.45a1 1 0 0 0 .07-.53 1.27 1.27 0 0 0 .59-.1l.07 0c.08 0 .15-.07.15.05 0 .41-.51.61-.88.61zm-.9 0a.48.48 0 0 0 .44.46 2.35 2.35 0 0 0 1.32-.34c.25-.16.62-.5.62-.84a.52.52 0 0 0-.09-.34c-.19-.25-.28-.07-.47 0a1.59 1.59 0 0 1-1.24.14c-.16-.07-.26.08-.36.24a1.17 1.17 0 0 0-.22.65zM34.1 10.16c.3.07.42.24 0 .41-.1 0-.25.06-.31.17s.19 0 .43 0 .29 0 .29.09-.3.37-.3.48.26-.06.26-.07.32-.29.43-.07 0 .55.14.55.09-.63.33-.63.34.44.49.44-.13-.47-.11-.62.39 0 .58 0 .1-.08-.08-.2-.47-.23-.34-.4.22-.07.24-.18a.93.93 0 0 0-.45-.06c-.28 0-.3.33-.57.3s-.13-.4-.85-.29l-.11 0c-.05 0-.06 0-.07.08zM44.5 13.59c0 .25-.82.28-1.08-.06s.2-.07.39 0 .57.05.69.08zm-1.72-.49a1.22 1.22 0 0 0 1.14 1.11c.43 0 1.18-.06 1-.65a1.46 1.46 0 0 0-.26-.53c-.09-.09-.13-.1-.27 0a.75.75 0 0 1-.3.09c-.2 0-.07-.22-.38-.22 0 0-.26.11-.44.15s-.36 0-.41.05-.06 0-.1 0zM38.82 22c0 .18.13.2 0 .42-.07-.05-.06-.07-.16-.12a.37.37 0 0 0-.23 0c-.43.06-.36.59-.68.78s-.7 0-.7.07c0 .31.41.53.75.53a1.38 1.38 0 0 0 .82-.21.71.71 0 0 0 .39-.62.79.79 0 0 0-.05-.22c.23-.12.22.07.36.07s.22-.28.07-.32c0-.08.06-.05.06-.18a.18.18 0 0 0-.19-.18c-.07 0-.06 0-.12.05a.17.17 0 1 0-.33 0zM45.72 19.57a.56.56 0 0 0 .1.3.74.74 0 0 0-.48-.07c-.21.05-.26.24-.26.43 0 .47.94.3.94 1a1.79 1.79 0 0 0 .61-1.21.9.9 0 0 0-.35-.85.39.39 0 0 0-.56.37zM34.37 20.82a.21.21 0 1 1 0-.42.22.22 0 0 1 .14.36.2.2 0 0 1-.16.06zm-.5-.59a.25.25 0 0 0 0 .15.41.41 0 0 0-.38.35v.08a.37.37 0 0 0 .4.32 1 1 0 0 0 .2 0c.07.13.12.26.36.26a.38.38 0 0 0 .39-.36 1.13 1.13 0 0 0 0-.18.38.38 0 0 0 .37-.38.39.39 0 0 0-.11-.26.36.36 0 0 0-.39-.09c-.06 0-.06 0-.11.05a.37.37 0 0 0-.73.1zM32.76 14.78c0-.19.08-.32.14-.29s0 .14.15.35a.58.58 0 0 0 .29.22c0 .11-.13.11-.24.11s-.34-.24-.34-.39zm.56-.44c0-.11.1-.1.16-.1s.08.19.23.3.1.07.1.1c0 .38-.49.11-.49-.3zm-1 .91c0 .16.22.11.22.11.28 0 .36.22.92 0l.15-.08.14-.11a1.17 1.17 0 0 0 .34-.68c0-.07-.16-.11-.2-.27s-.1-.17-.49-.17a1 1 0 0 0-1 .74l-.07.35s0 .06 0 .12zM45.56 14.23a1.46 1.46 0 0 0 .35.66A.55.55 0 0 0 46 15c.13.15.48.5.7.5s.3-1.59.15-1.81a.11.11 0 0 0-.11-.05c0 .17-.29.35-.44.44a1.66 1.66 0 0 1-.72.17z"/><path fill="#0066b3" fill-rule="evenodd" d="M36.94 22.17c0-.35.62 0 .51.21s-.51-.12-.51-.21zm-1.6-1.25c0 .18.47.24.64.31.52.24.47.47.57.86a.64.64 0 0 0 .17.36h0v0c.46.42 1.32.33.87-.33a.68.68 0 0 0-.59-.34c-.36 0-.31 0-.44-.49s-.34-.69-.72-.69c-.19 0-.53 0-.53.29zM41.9 14.24a.51.51 0 0 1-.28 0c.05-.07.11-.1.11-.22s-.22 0-.44-.07a1.59 1.59 0 0 1-.27-.18c-.28.43-.08 1.15.11 1.15s.07-.21.18-.21a1.11 1.11 0 0 0 .92 0 .81.81 0 0 0 .37-1 .24.24 0 0 0-.09-.16.64.64 0 0 1-.61.7zM42.32 20.62c-.2 0-.09-.23-.09-.44a.17.17 0 0 1 .17.08c.12.17.06.36-.08.36zM42 20c0 .25-.19.45-.19.78a.5.5 0 0 0 .95.19.92.92 0 0 0-.34-1 1.1 1.1 0 0 0-.53-.21.52.52 0 0 1 .07.11A.85.85 0 0 1 42 20zM34.4 16.19c.55 0 .65-.73.06-1.12-.28-.18-.27-.09-.34 0a.82.82 0 0 0 0 .92.45.45 0 0 0 .32.18z"/><path fill="#0066b3" fill-rule="evenodd" d="M41.12 13.54h0a.46.46 0 0 1 .74-.2.2.2 0 0 0-.13.15c0 .16.18.08.34.38a.87.87 0 0 0 .36-.71c0-.4-.08-.17-.21-.17a1.29 1.29 0 0 1-.16-.09.77.77 0 0 0-.68-.05.47.47 0 0 0-.19.15.62.62 0 0 0-.1.54zM42.15 22.87v.27c0 .32 1.24.33 1.24-.13 0-.17 0-.26-.2-.34a1.3 1.3 0 0 0-.78 0c-.08 0-.26.13-.26.2zM46.47 12.9c0 .32-.42.55-.72.62s-.43 0-.5.17c-.17.43.86.41 1.3-.13a.78.78 0 0 0 .2-.49.36.36 0 0 0-.32-.36.9.9 0 0 1 0 .19zM32.77 13.12a.56.56 0 0 0 .28.48 1 1 0 0 0 .58.14 1.53 1.53 0 0 0 0-.32c0-.33-.17-.69-.48-.69h-.08a.38.38 0 0 0-.35.39zM43 21c0 .53.75.43.75 0a.5.5 0 0 0-.24-.48.82.82 0 0 0-.47-.16c.16.29 0 .38 0 .64zM37.06 12.08a2.9 2.9 0 0 0 .86 1.18s.07 0 .09 0a.28.28 0 0 0 .06-.09c.15-.29 0-.41-.18-.56l-.33-.26-.14-.1s-.36-.24-.36-.13zM42.23 17a.4.4 0 0 0 .42.41.4.4 0 0 0 .38-.42.4.4 0 0 0-.8 0z"/><path fill="#0066b3" fill-rule="evenodd" d="M45.39 12.9l-.29 0c.13.2 0 .15.11.31s.55.12.74 0c.39-.2.34-.49.12-.49s-.42.17-.68.17zM42.65 15.65a.37.37 0 1 0-.37-.36.37.37 0 0 0 .37.36zM41.65 15.86a.36.36 0 1 0 .71 0 .37.37 0 0 0-.35-.35.36.36 0 0 0-.36.35zM40.93 16.23a.33.33 0 1 0 .33-.33.34.34 0 0 0-.33.33zM32.18 13.56a.43.43 0 0 0 .39.43c.11 0 .39 0 .42-.14a.59.59 0 0 1-.38-.24.78.78 0 0 1-.12-.51.5.5 0 0 0-.31.46zM41.2 20.84c0 .17-.1.34 0 .48s.58 0 .42-.36a.59.59 0 0 0-.52-.28c0 .06.07.08.07.16zM33.34 15.87a.31.31 0 0 0 .1.29.44.44 0 0 0 .48 0c0-.13-.21-.09-.21-.58 0-.09 0-.11 0-.19-.17.05-.4.24-.4.44zM33.23 16.28c-.24 0-.67.25-1-.13a1.25 1.25 0 0 0-.09-.12c0 1.24 1 .3 1.08.25zM32.27 12c.23 0 1-.67.36-.57-.22 0-.34.06-.4.29s0 .19 0 .28zM43.06 16.44a.29.29 0 0 0 .07.23.27.27 0 0 0 .46-.23.29.29 0 0 0-.26-.24.28.28 0 0 0-.27.24zM37.49 10.71c0 .06.16.18.21.21.32.18.44.17.44-.18 0-.19-.11-.16-.28-.16s-.37 0-.37.13z"/><path fill="#0066b3" fill-rule="evenodd" d="M33.12 15.75a1.71 1.71 0 0 1-.47 0c-.2-.06-.23-.17-.32-.19 0 .82.73.42.79.22zM43.25 16a.25.25 0 1 0 0-.49c-.32 0-.3.49 0 .49zM34.24 14.35a.23.23 0 1 0 .46.07.22.22 0 0 0-.07-.2.23.23 0 0 0-.39.13zM41.7 16.59a.24.24 0 0 0 .4.19.23.23 0 0 0-.2-.39.22.22 0 0 0-.2.2zM41.13 15.42a.23.23 0 0 0 .46.05.23.23 0 1 0-.46-.05zM34 13.87a.23.23 0 0 0 .46 0 .22.22 0 0 0-.2-.24c-.12 0-.13 0-.21.07a.18.18 0 0 0 0 .15zM42.45 16.12c0 .1 0 .14.06.2.23.23.54-.14.32-.33a.23.23 0 0 0-.38.13zM43.34 17.41a.22.22 0 1 0 0-.44.22.22 0 1 0 0 .44zM42.71 14.56a.22.22 0 1 0 .44 0 .22.22 0 0 0-.44 0zM41.68 15.11a.22.22 0 1 0 .44 0c0-.26-.44-.26-.44 0z"/></svg>