<svg xmlns="http://www.w3.org/2000/svg" data-name="Layer 1" viewBox="0 0 411.84 148.32"><path fill="#e51636" d="M131.07 49.12H103.13a4.14 4.14 0 0 0-3.42 1.93L95 58.8h28.15a3.65 3.65 0 0 1 3.19 3.8s0 14.8 0 14.8H105.2V73.14a1.45 1.45 0 0 1 1.36-1.52h14.75V66.15c0-1.34-.74-2.09-1.75-2.09H99.1a4.82 4.82 0 0 0-4.53 5.07v13.5a.68.68 0 0 0 .05.22 3.88 3.88 0 0 0 3.72 3.52h39.9V57.17c0-4.44-3.21-8.05-7.17-8.05M385.61 49.12H357.68a4.14 4.14 0 0 0-3.42 1.93l-4.73 7.75h28.16a3.66 3.66 0 0 1 3.19 3.8s0 14.8 0 14.8H359.75V73.14a1.45 1.45 0 0 1 1.36-1.52h14.76V66.15c0-1.34-.75-2.09-1.76-2.09H353.65a4.82 4.82 0 0 0-4.53 5.07v13.5a.68.68 0 0 0 .05.22 3.88 3.88 0 0 0 3.73 3.52h39.89V57.17c0-4.44-3.21-8.05-7.18-8.05M297.66 35.58v41.5H280.13a2.23 2.23 0 0 1-2.06-2.21V62.61h0a3.62 3.62 0 0 1 3.41-3.8h8.86a3.88 3.88 0 0 0 3.24-1.89l4.08-7.78H273.08c-3.95 0-7.17 3.59-7.17 8V79.71c0 4.28 3.08 6.66 5.89 6.66h38V35.58zM322.78 49.13a5.16 5.16 0 0 0-5 5.43V86.37H330V62.66c0-2.13 1.35-3.9 3.28-3.9h9a4.16 4.16 0 0 0 3.14-2.1c0-.06 4.72-7.53 4.72-7.53zM196.48 61.24V86.37h12.08V49.56L199 56.24a6.12 6.12 0 0 0-2.51 5m0-25.69h12.08v9.38l-12.08 9zM78.56 35.58H20.43V86.37H32.5V47.43H45.4A2.4 2.4 0 0 1 47.61 50h0V86.37H59.7V50A2.41 2.41 0 0 1 62 47.43H71.5a3.54 3.54 0 0 1 3.32 3.72V86.37H86.9V44.92c0-5.15-3.74-9.34-8.34-9.34M250.87 49.13l-34.36 0V86.37h12.16V58.79h13.84a3.61 3.61 0 0 1 3.4 3.8h0V86.37h12.13V57.17c0-4.44-3.22-8-7.18-8M188.5 57.16c0-4.44-3.21-8-7.18-8 0 0-.1 0-.11 0H165.43c-1.42 0-2.11.8-2.85 2l-4.74 7.65h15.33a3.64 3.64 0 0 1 3.25 3.8V86.36H188.5V57.16M145.75 35.58h12.09V86.36H145.75z"/><path fill="#656263" d="M328.49 107.48a7.28 7.28 0 0 0-.64-3.21 5.61 5.61 0 0 0-1.68-2.06 6.67 6.67 0 0 0-2.38-1.11 11.94 11.94 0 0 0-2.74-.32c-.94 0-1.88 0-2.84 0l-2.82 0-1.66 15.05c1 .1 1.92.18 2.83.25s1.85.11 2.84.11q4.38 0 6.74-2.22t2.35-6.56m4.2 24.63a2 2 0 0 1-1.08 1.81 7.39 7.39 0 0 1-3.69.66 1.76 1.76 0 0 1-1.12-.39 2.79 2.79 0 0 1-.73-1l-6.17-14.12a4.5 4.5 0 0 1-.83.07h-.7c-.93 0-1.74 0-2.45-.11s-1.51-.18-2.45-.32l-1.77 15.33a2.73 2.73 0 0 1-.8.21 7.71 7.71 0 0 1-1.18.08 2 2 0 0 1-1.5-.46 2.21 2.21 0 0 1-.41-1.47c0-.24.05-.78.13-1.64s.19-1.92.32-3.21.27-2.73.44-4.35.36-3.33.57-5.13c.34-2.9.7-5.78 1.05-8.63s.72-5.73 1.05-8.63l-4.13-.14a1.7 1.7 0 0 1-.25-1c0-1.47 1-2.21 3.11-2.21h11.78a17.5 17.5 0 0 1 3.8.43 9.26 9.26 0 0 1 3.42 1.49 8.07 8.07 0 0 1 2.42 2.85 9.54 9.54 0 0 1 .92 4.41c0 3.27-.78 5.83-2.33 7.65a13.83 13.83 0 0 1-6.39 4.09l5.79 12.67 2.74-.29a1.89 1.89 0 0 1 .44 1.31M346.53 98.89a2.68 2.68 0 0 1-3 2.92 2.75 2.75 0 0 1-1.74-.53 2.24 2.24 0 0 1-.67-1.82 2.82 2.82 0 0 1 .83-2.1 3.09 3.09 0 0 1 2.29-.82 2.14 2.14 0 0 1 1.78.64 2.66 2.66 0 0 1 .51 1.71m1.12 33.22a2 2 0 0 1-1.22 1.71 8.71 8.71 0 0 1-4.07.69 3.91 3.91 0 0 1-2.67-.79 3.69 3.69 0 0 1-.89-2.85 36 36 0 0 1 .38-4.42l2.17-16.9-4 .14a1.48 1.48 0 0 1-.45-1.14 1.86 1.86 0 0 1 1.24-1.78 11.32 11.32 0 0 1 4.3-.57 3.78 3.78 0 0 1 2.41.53 2.42 2.42 0 0 1 .38 2.1l-1.33 11q-.45 3.56-.77 6.19c-.21 1.75-.31 2.91-.31 3.48s.1 1.08.31 1.25a3 3 0 0 0 1.54.25 5.43 5.43 0 0 0 1.23-.19 10.94 10.94 0 0 0 1.25-.32 2 2 0 0 1 .51 1.6M369.85 108.84a2.4 2.4 0 0 1-.35 1.46 2.43 2.43 0 0 1-1.05.75 6.41 6.41 0 0 0-2.8-1.53 13.92 13.92 0 0 0-3.43-.4 5.8 5.8 0 0 0-4.17 1.36 4 4 0 0 0-1.44 3 5.63 5.63 0 0 0 .26 1.81 3.3 3.3 0 0 0 1 1.39 8.26 8.26 0 0 0 1.93 1.25c.83.4 1.88.87 3.15 1.39a22.56 22.56 0 0 1 2.84 1.5 7 7 0 0 1 1.74 1.53 4.81 4.81 0 0 1 .89 1.78 7.86 7.86 0 0 1 .27 2.11 8.72 8.72 0 0 1-.55 3 7.72 7.72 0 0 1-1.66 2.68 8.06 8.06 0 0 1-2.82 1.88 10.55 10.55 0 0 1-4.08.72c-.6 0-1.41 0-2.45-.06A16.82 16.82 0 0 1 354 134a7.91 7.91 0 0 1-2.7-1.18 2.55 2.55 0 0 1-1.14-2.21 2.12 2.12 0 0 1 .57-1.57 3.59 3.59 0 0 1 1.46-.86 7.38 7.38 0 0 0 3.57 2.46 13.14 13.14 0 0 0 4.2.75 5.59 5.59 0 0 0 3.78-1.18 3.9 3.9 0 0 0 1.37-3.11 3.53 3.53 0 0 0-1.09-2.64 13.05 13.05 0 0 0-4.06-2.29 20.36 20.36 0 0 1-3.25-1.51 8.29 8.29 0 0 1-2.14-1.71 6.22 6.22 0 0 1-1.17-2.15 9.32 9.32 0 0 1-.38-2.85 7.56 7.56 0 0 1 .73-3.3 8 8 0 0 1 2-2.61 9.81 9.81 0 0 1 3.12-1.75 14.07 14.07 0 0 1 9.13.25c1.22.59 1.84 1.37 1.84 2.32M389.45 112.9a4.23 4.23 0 0 0-1.05-3c-.71-.73-1.95-1.1-3.73-1.1a8.48 8.48 0 0 0-2.54.42 7.73 7.73 0 0 0-2.55 1.43 10 10 0 0 0-2.19 2.71 14 14 0 0 0-1.5 4.28 21.79 21.79 0 0 0 2.71.32c1.08.07 2.06.11 3 .11 2.92 0 5-.44 6.13-1.32a4.47 4.47 0 0 0 1.76-3.82m3.43-.5q0 8.56-11.07 8.56c-1 0-2 0-3.05-.1s-2.15-.21-3.24-.4a4.91 4.91 0 0 0-.07.86V122q0 9.27 6.8 9.27a17.6 17.6 0 0 0 4.2-.5 17.16 17.16 0 0 0 4.14-1.57 2 2 0 0 1 .76 1.64c0 1-.74 1.84-2.22 2.67s-3.93 1.26-7.32 1.26q-10.11 0-10.12-11.85a26.06 26.06 0 0 1 .9-7 16.06 16.06 0 0 1 2.6-5.49 11.66 11.66 0 0 1 4.27-3.53 13.13 13.13 0 0 1 5.92-1.25 10.5 10.5 0 0 1 3.59.53 6 6 0 0 1 2.28 1.43 5 5 0 0 1 1.25 2.14 9.21 9.21 0 0 1 .38 2.67M401.18 131a3.2 3.2 0 0 1-.89 2.42 3.43 3.43 0 0 1-2.48.85 3 3 0 0 1-1.91-.6 2.48 2.48 0 0 1-.76-2 3.24 3.24 0 0 1 .9-2.36 3.37 3.37 0 0 1 2.53-.92 2.51 2.51 0 0 1 2 .71 2.91 2.91 0 0 1 .6 1.93"/></svg>