<svg xmlns="http://www.w3.org/2000/svg" data-name="Layer 1" viewBox="0 0 235.44 231.12"><polygon fill="#fff" fill-rule="evenodd" points="12.28 24.08 205.04 24.08 205.04 216.84 12.28 216.84 12.28 24.08 12.28 24.08"/><polygon fill="#2e3192" fill-rule="evenodd" points="23.8 152.99 60.38 152.99 60.38 163.84 48.99 163.84 48.99 195.78 35.2 195.78 35.2 163.84 23.8 163.84 23.8 152.99 23.8 152.99"/><polygon fill="#2e3192" fill-rule="evenodd" points="107.76 152.99 144.34 152.99 144.34 163.84 132.94 163.84 132.94 195.78 119.15 195.78 119.15 163.84 107.76 163.84 107.76 152.99 107.76 152.99"/><polygon fill="#2e3192" fill-rule="evenodd" points="59.18 195.78 74.78 152.99 92.17 152.99 109.56 195.78 93.97 195.78 84.37 168.06 74.18 195.78 59.18 195.78 59.18 195.78"/><polygon fill="#2e3192" fill-rule="evenodd" points="143.14 195.78 158.73 152.99 176.12 152.99 193.51 195.78 177.92 195.78 168.33 168.06 158.13 195.78 143.14 195.78 143.14 195.78"/><path fill="#2e3192" fill-rule="evenodd" d="M107,42.65c27.78,0,51.76,11.62,62.3,28.19-15.87-4.34-34.24-7.69-53.31-7.05-3,.1-5.4.89-5.4,3.76v69.11c-1.19,0-2.39.07-3.59.07s-2.3,0-3.44-.06V67.55c0-2.87-2.35-3.66-5.4-3.76-19.15-.64-37.59,2.73-53.5,7.1C55.19,54.29,79.19,42.65,107,42.65Zm66.91,38.56A32.94,32.94,0,0,1,175,89.69c0,20.39-18.94,37.83-45.28,44.32L122,81.87c-.64-4.24-.6-7.12,3-7.23C145.22,74,157.1,77,173.91,81.21Zm-89.5,52.84C58,127.58,39,110.12,39,89.69a32.69,32.69,0,0,1,1.11-8.44C57,77.05,68.86,74,89.17,74.64c3.61.11,3.65,3,3,7.23l-7.77,52.18Z"/></svg>